<!DOCTYPE svg PUBLIC "-//W3C//DTD SVG 20010904//EN" "http://www.w3.org/TR/2001/REC-SVG-20010904/DTD/svg10.dtd">
<svg version="1.0" xmlns="http://www.w3.org/2000/svg" width="512px" height="512px" viewBox="0 0 5120 5120" preserveAspectRatio="xMidYMid meet">
<g id="layer101" fill="#68217a" stroke="none">
 <path d="M2454 4072 c-23 -9 -289 -159 -590 -332 -582 -334 -628 -366 -652 -446 -9 -31 -12 -217 -12 -735 0 -657 1 -696 19 -735 10 -23 34 -56 52 -73 30 -29 1009 -600 1149 -671 70 -35 131 -44 195 -27 77 20 1180 657 1228 709 69 75 68 63 65 829 -3 680 -3 684 -25 725 -12 22 -35 53 -52 70 -33 32 -1146 675 -1200 693 -49 16 -129 13 -177 -7z"/>
 </g>
<g id="layer102" fill="#8f38a6" stroke="none">
 <path d="M2418 3460 c-243 -39 -460 -174 -605 -377 -25 -35 -46 -63 -48 -63 -1 0 -124 70 -271 155 l-269 154 -12 -32 c-8 -23 -12 -222 -12 -732 -1 -663 0 -702 18 -741 10 -23 34 -56 52 -73 30 -29 1009 -600 1149 -671 70 -35 131 -44 195 -27 77 20 1180 657 1228 709 69 75 68 63 65 829 -3 586 -5 688 -18 710 l-15 27 -265 -154 c-145 -85 -268 -154 -271 -154 -4 0 -18 17 -30 37 -108 174 -325 330 -534 384 -91 23 -270 33 -357 19z m247 -466 c33 -8 80 -27 105 -41 54 -32 129 -101 152 -140 l16 -28 -191 -111 -191 -111 -190 110 c-105 60 -193 111 -195 113 -9 8 72 102 113 132 49 35 123 71 171 83 52 12 149 10 210 -7z"/>
 </g>
<g id="layer103" fill="#a05eb0" stroke="none">
 <path d="M2425 3460 c-352 -53 -655 -323 -747 -665 -31 -118 -32 -339 0 -448 93 -324 306 -546 617 -644 83 -26 102 -28 255 -28 187 0 239 11 376 75 151 70 281 178 366 303 33 49 38 61 27 72 -17 15 -365 215 -375 215 -4 0 -33 -29 -66 -65 -44 -48 -79 -74 -136 -102 -75 -37 -78 -38 -191 -38 -109 0 -120 2 -181 31 -122 58 -213 165 -245 289 -76 293 153 572 455 552 132 -8 251 -72 325 -174 17 -23 34 -42 39 -42 13 -1 374 208 382 221 9 15 -62 113 -136 189 -113 114 -262 200 -418 240 -89 23 -260 32 -347 19z"/>
 <path d="M3265 2743 c4 -21 9 -46 12 -55 3 -14 -2 -18 -26 -18 -30 0 -31 -1 -31 -45 l0 -45 39 0 c38 0 38 0 45 -46 10 -73 9 -74 -29 -74 -34 0 -35 -1 -35 -40 l0 -40 45 0 c43 0 44 -1 50 -37 12 -71 14 -73 56 -73 42 0 43 1 30 68 l-8 42 57 0 58 0 7 -55 6 -55 45 0 c38 0 45 3 41 18 -3 9 -8 34 -12 55 -6 36 -5 37 25 37 28 0 30 2 30 40 0 39 -1 40 -34 40 -41 0 -42 1 -51 67 l-7 52 34 3 c31 3 33 5 33 43 0 40 0 40 -42 43 -40 3 -43 5 -49 40 -11 71 -13 72 -55 72 l-40 0 6 -55 7 -55 -55 0 -56 0 -6 55 -7 55 -45 0 -44 0 6 -37z m229 -170 c3 -10 8 -39 12 -65 l6 -48 -55 0 c-62 0 -61 -1 -73 83 l-6 47 55 0 c44 0 57 -4 61 -17z"/>
 </g>
<g id="layer104" fill="#b480c1" stroke="none">
 <path d="M2415 3456 c-363 -57 -657 -331 -741 -692 -27 -115 -25 -301 5 -414 153 -584 801 -857 1328 -559 120 68 344 302 315 331 -11 11 -372 218 -381 218 -4 0 -23 -22 -43 -49 -45 -59 -142 -126 -217 -148 -78 -22 -201 -20 -273 5 -191 68 -308 246 -295 446 9 137 67 249 172 328 85 65 143 83 270 83 107 0 112 -1 186 -37 56 -27 92 -54 133 -98 31 -34 56 -65 56 -71 0 -5 5 -9 11 -9 12 0 357 197 378 216 11 10 8 20 -20 61 -148 217 -372 356 -632 392 -96 13 -148 13 -252 -3z"/>
 <path d="M3263 2763 c3 -10 9 -37 12 -60 7 -43 7 -43 -24 -43 -29 0 -31 -3 -31 -34 0 -33 2 -35 37 -38 l38 -3 11 -62 11 -63 -39 0 c-39 0 -39 0 -36 -37 3 -37 4 -38 45 -41 45 -3 46 -5 58 -74 6 -37 7 -38 47 -38 l40 0 -6 38 c-4 20 -9 45 -12 55 -5 15 2 17 54 17 l59 0 9 -52 9 -53 41 -3 42 -3 -9 43 c-12 65 -12 68 21 68 28 0 30 2 30 40 0 40 0 40 -38 40 l-38 0 -10 60 c-6 33 -8 63 -5 65 2 3 19 5 38 5 31 0 33 2 33 35 0 35 0 35 -44 35 -41 0 -45 2 -50 30 -3 17 -9 44 -12 60 -5 27 -9 30 -45 30 l-40 0 7 -47 c3 -27 7 -52 8 -58 0 -6 -23 -10 -54 -10 l-55 0 -10 55 -11 55 -43 3 c-37 3 -42 1 -38 -15z m230 -180 c3 -5 8 -34 12 -65 l7 -58 -55 0 c-31 0 -58 3 -60 8 -3 4 -8 33 -12 65 l-7 57 55 0 c31 0 58 -3 60 -7z"/>
 </g>
<g id="layer105" fill="#c59fd0" stroke="none">
 <path d="M2443 3460 c-103 -14 -182 -38 -277 -84 -249 -118 -425 -338 -493 -612 -23 -94 -22 -295 1 -389 23 -95 51 -168 92 -243 286 -513 980 -619 1407 -214 67 64 161 192 150 203 -12 11 -374 219 -382 219 -4 0 -21 -20 -39 -45 -58 -82 -166 -145 -284 -165 -189 -33 -384 74 -471 257 -30 64 -32 75 -32 178 1 90 5 120 23 165 44 111 141 208 252 252 45 19 75 23 165 23 103 0 114 -2 178 -32 69 -33 181 -129 192 -164 4 -11 11 -19 16 -19 10 0 368 206 383 220 12 12 -68 122 -145 198 -156 155 -358 244 -580 256 -52 2 -122 1 -156 -4z"/>
 <path d="M3271 2738 c14 -72 12 -78 -21 -78 -28 0 -30 -3 -30 -34 0 -33 2 -35 37 -38 39 -3 43 -9 56 -90 6 -38 5 -38 -29 -38 -33 0 -34 -1 -34 -40 0 -40 0 -40 39 -40 42 0 44 -2 56 -72 6 -37 7 -38 46 -38 l40 0 -6 38 c-4 20 -9 45 -12 55 -4 15 3 17 56 17 l59 0 9 -52 c8 -53 8 -53 47 -56 l39 -3 -7 55 -6 56 30 0 c28 0 30 2 30 40 0 40 0 40 -39 40 -39 0 -39 0 -45 48 -4 26 -9 55 -12 65 -5 14 1 17 35 17 40 0 41 1 41 35 0 35 0 35 -44 35 -49 0 -49 1 -61 78 -7 41 -7 42 -47 42 -39 0 -39 -1 -34 -30 3 -16 9 -43 12 -60 l6 -30 -60 0 -60 0 -8 58 -9 57 -41 3 -42 3 9 -43z m234 -216 l12 -63 -61 3 -61 3 -11 63 -11 63 60 -3 61 -3 11 -63z"/>
 </g>
<g id="layer106" fill="#fefefe" stroke="none">
 <path d="M2335 3436 c-167 -44 -302 -121 -416 -235 -131 -132 -215 -291 -249 -471 -16 -82 -13 -256 5 -346 18 -86 64 -203 117 -292 48 -82 208 -240 294 -291 270 -158 585 -172 861 -36 147 73 283 194 366 326 l16 27 -196 112 c-181 104 -196 111 -206 94 -22 -38 -97 -110 -149 -141 -219 -132 -516 -43 -626 188 -106 222 -16 488 202 594 201 99 427 42 566 -143 l25 -32 190 110 c106 62 189 116 187 123 -8 27 -94 136 -153 193 -79 74 -137 115 -232 160 -129 61 -195 76 -362 80 -134 4 -159 2 -240 -20z"/>
 <path d="M3270 2763 c1 -10 5 -37 9 -60 l8 -43 -33 0 c-32 0 -34 -2 -34 -35 0 -34 1 -35 39 -35 43 0 40 4 57 -92 l6 -38 -36 0 c-34 0 -36 -2 -36 -34 0 -34 1 -35 43 -38 l42 -3 9 -57 c8 -58 8 -58 43 -58 l36 0 -7 60 -7 60 60 0 c58 0 60 -1 65 -30 3 -16 9 -43 12 -60 5 -26 10 -30 40 -30 l35 0 -7 48 c-3 26 -7 52 -8 57 0 6 14 11 32 13 29 3 32 6 32 38 0 33 -1 34 -39 34 -43 0 -40 -4 -57 93 l-6 37 36 0 c34 0 36 2 36 34 0 34 -1 35 -42 38 l-43 3 -9 58 -9 57 -37 0 -37 0 8 -42 c15 -79 16 -78 -50 -78 -65 0 -64 -2 -76 78 -6 40 -8 42 -41 42 -26 0 -34 -4 -34 -17z m234 -210 c4 -21 9 -50 12 -65 l6 -28 -65 0 -65 0 -6 38 c-4 20 -9 49 -12 65 l-6 27 65 0 65 0 6 -37z"/>
 </g>

</svg>