<!DOCTYPE svg PUBLIC "-//W3C//DTD SVG 20010904//EN" "http://www.w3.org/TR/2001/REC-SVG-20010904/DTD/svg10.dtd">
<svg version="1.0" xmlns="http://www.w3.org/2000/svg" width="226px" height="223px" viewBox="0 0 2260 2230" preserveAspectRatio="xMidYMid meet">
<g id="layer101" fill="#56337a" stroke="none">
 <path d="M0 1115 l0 -1115 1130 0 1130 0 0 1115 0 1115 -1130 0 -1130 0 0 -1115z"/>
 </g>
<g id="layer102" fill="#5e397c" stroke="none">
 <path d="M0 1115 l0 -1115 1130 0 1130 0 0 1115 0 1115 -1130 0 -1130 0 0 -1115z m365 605 c3 -5 4 -10 1 -10 -3 0 -8 5 -11 10 -3 6 -4 10 -1 10 3 0 8 -4 11 -10z m-333 -98 c-4 -11 -1 -13 8 -7 9 5 11 4 6 -4 -4 -6 -12 -9 -17 -6 -5 4 -10 -115 -12 -292 l-2 -298 -3 311 c-2 261 0 311 12 311 8 0 12 -6 8 -15z m473 -22 c3 -5 4 -10 1 -10 -3 0 -8 5 -11 10 -3 6 -4 10 -1 10 3 0 8 -4 11 -10z m-215 -276 c0 -53 -18 -49 -22 5 -2 39 0 47 10 39 6 -6 12 -25 12 -44z"/>
 </g>
<g id="layer103" fill="#5c427d" stroke="none">
 <path d="M2 1608 c2 -513 4 -566 8 -298 4 243 8 326 17 327 8 2 10 -4 6 -14 -5 -12 -3 -14 8 -8 8 5 7 1 -3 -12 -16 -18 -18 -51 -18 -371 0 -241 -3 -352 -11 -352 -13 0 -8 -236 5 -264 7 -14 6 -17 -2 -12 -9 5 -12 -68 -12 -298 l0 -306 1130 0 1130 0 0 1115 0 1115 -1130 0 -1130 0 2 -622z m363 112 c3 -5 4 -10 1 -10 -3 0 -8 5 -11 10 -3 6 -4 10 -1 10 3 0 8 -4 11 -10z m140 -120 c3 -5 4 -10 1 -10 -3 0 -8 5 -11 10 -3 6 -4 10 -1 10 3 0 8 -4 11 -10z m-228 -215 c-4 -8 -2 -17 3 -20 14 -8 13 -392 0 -400 -7 -4 -11 61 -12 187 -2 259 -2 248 8 248 3 0 4 -7 1 -15z"/>
 </g>
<g id="layer104" fill="#5e3490" stroke="none">
 <path d="M2 1608 c2 -513 4 -566 8 -298 4 243 8 326 17 327 8 2 10 -4 6 -14 -5 -12 -3 -14 8 -8 8 5 7 0 -4 -12 -16 -19 -17 -53 -15 -496 2 -262 0 -473 -4 -469 -4 4 -9 59 -11 122 l-3 115 1 -120 c0 -66 4 -129 9 -139 7 -14 6 -17 -2 -12 -9 5 -12 -68 -12 -298 l0 -306 1130 0 1130 0 0 1115 0 1115 -1130 0 -1130 0 2 -622z m265 156 c-3 -3 -12 -4 -19 -1 -8 3 -5 6 6 6 11 1 17 -2 13 -5z m30 -1 c-4 -3 -10 -3 -14 0 -3 4 0 7 7 7 7 0 10 -3 7 -7z m68 -43 c3 -5 4 -10 1 -10 -3 0 -8 5 -11 10 -3 6 -4 10 -1 10 3 0 8 -4 11 -10z m136 -117 c13 -16 12 -17 -3 -4 -10 7 -18 15 -18 17 0 8 8 3 21 -13z m84 -63 c3 -5 4 -10 1 -10 -3 0 -8 5 -11 10 -3 6 -4 10 -1 10 3 0 8 -4 11 -10z m-296 -420 c0 -135 -4 -254 -9 -265 -5 -12 -10 75 -11 220 -2 132 -4 254 -4 270 -1 17 1 36 3 44 14 39 21 -44 21 -269z m96 220 c3 -5 4 -10 1 -10 -3 0 -8 5 -11 10 -3 6 -4 10 -1 10 3 0 8 -4 11 -10z m970 -430 c3 -5 4 -10 1 -10 -3 0 -8 5 -11 10 -3 6 -4 10 -1 10 3 0 8 -4 11 -10z"/>
 </g>
<g id="layer105" fill="#5e37a1" stroke="none">
 <path d="M2 1608 c2 -541 3 -579 8 -288 3 184 7 336 8 338 8 12 22 -14 17 -31 -5 -17 -4 -19 4 -7 9 13 12 12 25 -5 9 -11 16 -16 16 -11 0 5 -8 18 -18 29 -16 19 -16 19 8 12 14 -4 25 -8 26 -9 0 0 15 -20 32 -42 22 -29 32 -54 33 -80 2 -31 3 -33 6 -11 2 15 7 27 10 27 9 0 82 -82 80 -89 -1 -3 3 -7 8 -8 6 -1 13 -19 17 -40 10 -55 8 -514 -2 -538 -5 -12 -10 68 -11 205 -4 311 -4 307 -20 326 -12 16 -12 17 3 11 12 -4 15 -2 11 9 -3 7 -9 14 -14 14 -5 0 -9 9 -9 20 0 21 -33 29 -45 10 -3 -6 4 -10 16 -10 19 0 21 -4 15 -32 -3 -17 -7 -33 -9 -34 -9 -9 -47 11 -52 27 -9 27 -34 23 -41 -6 -7 -28 -33 -34 -36 -7 0 9 -4 -5 -8 -33 l-7 -50 -2 60 c-2 33 -7 83 -11 110 -8 43 -8 39 -4 -24 4 -50 2 -71 -5 -66 -6 3 -11 -1 -11 -9 0 -9 5 -16 10 -16 6 0 10 -9 10 -21 0 -11 -4 -18 -9 -15 -5 3 -12 -6 -16 -21 -4 -17 -2 -29 4 -31 15 -5 14 -69 -2 -74 -9 -4 -12 -70 -12 -286 0 -278 -11 -373 -18 -152 l-3 115 1 -120 c0 -66 4 -129 9 -139 7 -14 6 -17 -2 -12 -9 5 -12 -68 -12 -298 l0 -306 1130 0 1130 0 0 1115 0 1115 -1130 0 -1130 0 2 -622z m265 156 c-3 -3 -12 -4 -19 -1 -8 3 -5 6 6 6 11 1 17 -2 13 -5z m30 -1 c-4 -3 -10 -3 -14 0 -3 4 0 7 7 7 7 0 10 -3 7 -7z m-90 -20 c-4 -3 -10 -3 -14 0 -3 4 0 7 7 7 7 0 10 -3 7 -7z m163 -28 c13 -14 21 -25 18 -25 -2 0 -15 11 -28 25 -13 14 -21 25 -18 25 2 0 15 -11 28 -25z m131 -112 c13 -16 12 -17 -3 -4 -10 7 -18 15 -18 17 0 8 8 3 21 -13z m84 -63 c3 -5 4 -10 1 -10 -3 0 -8 5 -11 10 -3 6 -4 10 -1 10 3 0 8 -4 11 -10z m-250 -140 c3 -5 4 -10 1 -10 -3 0 -8 5 -11 10 -3 6 -4 10 -1 10 3 0 8 -4 11 -10z m-218 -46 c-3 -3 -12 -4 -19 -1 -8 3 -5 6 6 6 11 1 17 -2 13 -5z m268 -14 c3 -5 4 -10 1 -10 -3 0 -8 5 -11 10 -3 6 -4 10 -1 10 3 0 8 -4 11 -10z m970 -430 c3 -5 4 -10 1 -10 -3 0 -8 5 -11 10 -3 6 -4 10 -1 10 3 0 8 -4 11 -10z m-1075 -94 c0 -3 -5 -8 -12 -12 -7 -4 -8 -3 -4 4 7 12 16 16 16 8z"/>
 <path d="M71 1534 c0 -11 3 -14 6 -6 3 7 2 16 -1 19 -3 4 -6 -2 -5 -13z"/>
 <path d="M123 1523 c4 -3 10 -3 14 0 3 4 0 7 -7 7 -7 0 -10 -3 -7 -7z"/>
 </g>
<g id="layer106" fill="#663a97" stroke="none">
 <path d="M2 1608 c2 -541 3 -579 8 -288 3 184 7 335 8 335 31 5 52 3 52 -5 0 -6 6 -10 14 -10 8 0 17 -7 20 -16 3 -9 11 -12 18 -8 7 4 10 4 6 -1 -9 -10 10 -47 21 -41 10 7 48 -37 53 -61 2 -10 11 -17 21 -17 9 1 14 -2 11 -7 -3 -5 -1 -9 5 -9 6 0 18 -15 28 -32 15 -29 18 -68 21 -287 2 -139 0 -270 -5 -290 -5 -24 -10 35 -13 189 l-5 225 -22 -3 c-18 -2 -21 1 -17 13 4 9 12 14 19 11 20 -7 24 60 5 80 -14 15 -13 16 5 10 19 -6 19 -5 2 8 -9 7 -17 23 -17 35 0 22 -33 30 -45 11 -3 -6 4 -10 16 -10 19 0 21 -4 15 -32 -3 -17 -7 -33 -9 -34 -9 -9 -47 11 -52 27 -9 27 -34 23 -41 -6 -7 -29 -30 -33 -37 -7 -3 9 -5 -3 -6 -28 -2 -56 -15 -82 -25 -48 -7 23 -8 23 -18 -6 -8 -22 -8 -31 1 -34 15 -5 14 -69 -2 -74 -9 -4 -12 -70 -12 -286 0 -278 -11 -373 -18 -152 l-3 115 1 -120 c0 -66 4 -129 9 -139 7 -14 6 -17 -2 -12 -9 5 -12 -68 -12 -298 l0 -306 1130 0 1130 0 0 1115 0 1115 -1130 0 -1130 0 2 -622z m265 156 c-3 -3 -12 -4 -19 -1 -8 3 -5 6 6 6 11 1 17 -2 13 -5z m30 -1 c-4 -3 -10 -3 -14 0 -3 4 0 7 7 7 7 0 10 -3 7 -7z m-90 -20 c-4 -3 -10 -3 -14 0 -3 4 0 7 7 7 7 0 10 -3 7 -7z m163 -28 c13 -14 21 -25 18 -25 -2 0 -15 11 -28 25 -13 14 -21 25 -18 25 2 0 15 -11 28 -25z m-219 -8 c-8 -8 -14 -7 -23 2 -11 10 -9 11 6 5 15 -6 17 -4 11 6 -6 9 -4 11 4 5 9 -5 10 -10 2 -18z m66 16 c-4 -3 -10 -3 -14 0 -3 4 0 7 7 7 7 0 10 -3 7 -7z m-127 -27 c0 -2 -7 -7 -16 -10 -8 -3 -12 -2 -9 4 6 10 25 14 25 6z m350 -48 c0 -6 -6 -5 -15 2 -8 7 -15 14 -15 16 0 2 7 1 15 -2 8 -4 15 -11 15 -16z m30 -12 c0 -2 -6 -9 -14 -15 -11 -9 -16 -9 -22 0 -4 7 -3 9 4 5 6 -3 13 -2 17 4 6 10 15 14 15 6z m-55 -16 c3 -5 4 -10 1 -10 -3 0 -8 5 -11 10 -3 6 -4 10 -1 10 3 0 8 -4 11 -10z m82 -12 c11 -19 13 -39 2 -32 -5 3 -7 9 -4 14 3 5 -3 13 -12 19 -10 6 -13 11 -6 11 6 0 15 -6 20 -12z m60 -63 c0 -8 -4 -12 -9 -9 -5 3 -6 10 -3 15 9 13 12 11 12 -6z m28 -5 c3 -5 4 -10 1 -10 -3 0 -8 5 -11 10 -3 6 -4 10 -1 10 3 0 8 -4 11 -10z m-250 -140 c3 -5 4 -10 1 -10 -3 0 -8 5 -11 10 -3 6 -4 10 -1 10 3 0 8 -4 11 -10z m-218 -46 c-3 -3 -12 -4 -19 -1 -8 3 -5 6 6 6 11 1 17 -2 13 -5z m268 -14 c3 -5 4 -10 1 -10 -3 0 -8 5 -11 10 -3 6 -4 10 -1 10 3 0 8 -4 11 -10z m970 -430 c3 -5 4 -10 1 -10 -3 0 -8 5 -11 10 -3 6 -4 10 -1 10 3 0 8 -4 11 -10z m-1075 -94 c0 -3 -5 -8 -12 -12 -7 -4 -8 -3 -4 4 7 12 16 16 16 8z"/>
 <path d="M55 1630 c3 -5 8 -10 11 -10 3 0 2 5 -1 10 -3 6 -8 10 -11 10 -3 0 -2 -4 1 -10z"/>
 <path d="M30 1620 c0 -7 3 -10 7 -7 3 4 3 10 0 14 -4 3 -7 0 -7 -7z"/>
 <path d="M71 1534 c0 -11 3 -14 6 -6 3 7 2 16 -1 19 -3 4 -6 -2 -5 -13z"/>
 <path d="M123 1523 c4 -3 10 -3 14 0 3 4 0 7 -7 7 -7 0 -10 -3 -7 -7z"/>
 <path d="M162 1505 c0 -16 2 -22 5 -12 2 9 2 23 0 30 -3 6 -5 -1 -5 -18z"/>
 <path d="M53 1480 c0 -25 2 -35 4 -22 2 12 2 32 0 45 -2 12 -4 2 -4 -23z"/>
 <path d="M40 1376 c0 -9 5 -16 10 -16 6 0 10 4 10 9 0 6 -4 13 -10 16 -5 3 -10 -1 -10 -9z"/>
 </g>
<g id="layer107" fill="#6e479a" stroke="none">
 <path d="M2 1608 c2 -541 3 -579 8 -288 3 184 7 336 8 338 6 7 52 1 52 -8 0 -5 6 -7 14 -4 7 3 29 -15 52 -42 21 -26 56 -65 77 -87 72 -75 71 -74 75 -356 4 -255 -1 -327 -19 -315 -5 3 -7 15 -4 25 4 11 3 55 -1 97 -8 75 -9 76 -15 32 -3 -25 -7 -35 -7 -22 -2 27 -38 31 -45 5 -4 -17 -5 -17 -6 0 -1 22 -18 22 -24 0 -4 -17 -5 -17 -6 0 -1 13 -10 17 -41 17 l-40 0 -2 -62 c-1 -37 -5 -11 -8 62 -5 110 -6 115 -8 43 -2 -64 -5 -83 -16 -83 -17 0 -30 -124 -24 -247 1 -45 0 -79 -4 -75 -4 4 -9 59 -11 122 l-3 115 1 -120 c0 -66 4 -129 9 -139 7 -14 6 -17 -2 -12 -9 5 -12 -68 -12 -298 l0 -306 1130 0 1130 0 0 1115 0 1115 -1130 0 -1130 0 2 -622z m265 156 c-3 -3 -12 -4 -19 -1 -8 3 -5 6 6 6 11 1 17 -2 13 -5z m30 -1 c-4 -3 -10 -3 -14 0 -3 4 0 7 7 7 7 0 10 -3 7 -7z m-77 -13 c-8 -5 -19 -10 -25 -10 -5 0 -3 5 5 10 8 5 20 10 25 10 6 0 3 -5 -5 -10z m-58 -32 c-18 -18 -24 -20 -34 -10 -11 11 -9 12 6 6 15 -6 17 -4 11 6 -5 9 -4 11 3 6 7 -4 12 -2 12 3 0 6 6 11 12 11 7 0 2 -10 -10 -22z m276 -70 c7 -17 -5 -6 -53 44 l-50 52 50 -44 c28 -24 52 -48 53 -52z m-221 75 c-4 -3 -10 -3 -14 0 -3 4 0 7 7 7 7 0 10 -3 7 -7z m-128 -27 c-2 -2 -15 -9 -29 -15 -24 -11 -24 -11 -6 3 16 13 49 24 35 12z m396 -76 c17 -19 33 -61 17 -45 -4 4 -7 10 -7 14 0 17 -32 40 -43 29 -6 -6 -12 -6 -17 3 -5 8 -4 10 3 5 7 -4 12 -2 12 3 0 17 15 13 35 -9z m-70 0 c3 -5 4 -10 1 -10 -3 0 -8 5 -11 10 -3 6 -4 10 -1 10 3 0 8 -4 11 -10z m119 -60 c-6 -6 -10 -3 -10 10 0 13 4 16 10 10 7 -7 7 -13 0 -20z m23 -15 c0 -8 -4 -12 -9 -9 -5 3 -6 10 -3 15 9 13 12 11 12 -6z m28 -5 c3 -5 4 -10 1 -10 -3 0 -8 5 -11 10 -3 6 -4 10 -1 10 3 0 8 -4 11 -10z m33 -45 c-3 -3 -9 2 -12 12 -6 14 -5 15 5 6 7 -7 10 -15 7 -18z m22 -9 c0 -3 -5 -8 -12 -12 -7 -4 -8 -3 -4 4 7 12 16 16 16 8z m-306 -68 c-3 -5 0 -16 8 -25 9 -12 9 -15 1 -9 -22 12 -34 43 -18 43 8 0 12 -4 9 -9z m51 -78 c3 -5 4 -10 1 -10 -3 0 -8 5 -11 10 -3 6 -4 10 -1 10 3 0 8 -4 11 -10z m22 -27 c-4 -3 -7 0 -7 7 0 7 3 10 7 7 3 -4 3 -10 0 -14z m948 -403 c3 -5 4 -10 1 -10 -3 0 -8 5 -11 10 -3 6 -4 10 -1 10 3 0 8 -4 11 -10z m-1298 -82 c-2 -13 -4 -5 -4 17 -1 22 1 32 4 23 2 -10 2 -28 0 -40z m203 -3 c0 -5 -5 -3 -10 5 -5 8 -10 20 -10 25 0 6 5 3 10 -5 5 -8 10 -19 10 -25z m20 -9 c0 -3 -5 -8 -12 -12 -7 -4 -8 -3 -4 4 7 12 16 16 16 8z m-20 -30 c0 -3 -5 -8 -12 -12 -7 -4 -8 -3 -4 4 7 12 16 16 16 8z m-35 -36 c-3 -5 -11 -10 -16 -10 -6 0 -7 5 -4 10 3 6 11 10 16 10 6 0 7 -4 4 -10z"/>
 </g>
<g id="layer108" fill="#795f9d" stroke="none">
 <path d="M2 1608 c2 -522 3 -569 8 -292 4 267 8 334 19 348 22 27 88 57 107 49 11 -4 15 -2 11 4 -7 12 92 53 126 53 28 0 48 -14 206 -145 74 -60 158 -129 189 -152 59 -46 59 -59 -1 -19 -19 13 -38 22 -41 20 -3 -2 -4 -1 -2 2 7 9 -25 38 -57 52 -17 7 -25 17 -21 24 5 7 2 9 -9 5 -11 -4 -14 -2 -10 9 3 10 0 12 -10 8 -10 -3 -21 5 -33 25 -13 22 -21 27 -30 20 -8 -7 -15 -6 -20 2 -4 8 -3 9 4 5 25 -15 10 5 -35 48 -43 40 -50 43 -64 30 -15 -13 -16 -12 -15 13 1 22 -4 28 -32 35 -42 11 -120 -10 -87 -23 20 -8 20 -8 0 -9 -11 -2 -24 -2 -29 -1 -4 1 -13 -2 -20 -7 -6 -5 -27 -12 -46 -16 -52 -9 -66 -20 -49 -38 7 -8 21 -13 30 -11 11 3 22 -4 29 -17 13 -25 41 -59 85 -104 17 -17 42 -47 55 -66 l25 -35 0 -310 0 -311 -69 -76 c-38 -42 -78 -79 -88 -81 -11 -3 -16 -11 -13 -19 3 -8 -1 -21 -11 -28 -14 -12 -17 -12 -25 3 -8 14 -13 14 -23 4 -10 -9 -11 -14 -2 -19 7 -5 7 -8 -3 -8 -8 0 -23 7 -33 17 -17 16 -18 6 -18 -290 l0 -307 1130 0 1130 0 0 1115 0 1115 -1130 0 -1130 0 2 -622z m1508 519 c0 -2 -10 -12 -22 -23 l-23 -19 19 23 c18 21 26 27 26 19z m-240 -261 c0 -3 -5 -8 -12 -12 -7 -4 -8 -3 -4 4 7 12 16 16 16 8z m-70 -90 c0 -3 -5 -8 -12 -12 -7 -4 -8 -3 -4 4 7 12 16 16 16 8z m-50 -50 c0 -3 -5 -8 -12 -12 -7 -4 -8 -3 -4 4 7 12 16 16 16 8z m-735 -106 c3 -5 4 -10 1 -10 -3 0 -8 5 -11 10 -3 6 -4 10 -1 10 3 0 8 -4 11 -10z m-78 -17 c-4 -3 -7 0 -7 7 0 7 3 10 7 7 3 -4 3 -10 0 -14z m713 13 c0 -3 -5 -8 -12 -12 -7 -4 -8 -3 -4 4 7 12 16 16 16 8z m-716 -189 c4 4 4 -1 0 -10 -5 -13 -1 -20 15 -24 11 -3 18 -9 15 -14 -3 -5 2 -12 10 -15 9 -3 13 -10 10 -15 -3 -5 -1 -9 5 -9 5 0 24 -19 41 -42 18 -24 -4 -5 -49 42 -44 47 -81 89 -81 94 0 5 6 3 13 -3 8 -6 17 -8 21 -4z m423 -29 c33 -31 28 -43 -7 -16 -28 20 -39 38 -23 38 4 0 17 -10 30 -22z m-277 -142 c0 -3 -5 -8 -12 -12 -7 -4 -8 -3 -4 4 7 12 16 16 16 8z m30 -37 c0 -5 17 -28 37 -51 21 -24 27 -34 14 -23 -36 31 -85 96 -67 89 9 -3 16 -10 16 -15z m631 -136 c13 -17 13 -17 -6 -3 -11 8 -22 16 -24 17 -2 2 0 3 6 3 6 0 17 -8 24 -17z m36 -30 c-4 -3 -10 -3 -14 0 -3 4 0 7 7 7 7 0 10 -3 7 -7z m68 -53 c3 -5 4 -10 1 -10 -3 0 -8 5 -11 10 -3 6 -4 10 -1 10 3 0 8 -4 11 -10z m66 -57 c13 -16 12 -17 -3 -4 -17 13 -22 21 -14 21 2 0 10 -8 17 -17z m53 -42 c21 -22 25 -31 14 -37 -7 -4 -10 -4 -6 1 11 11 -12 36 -26 28 -6 -3 -8 -3 -4 2 4 4 3 14 -3 22 -21 24 -3 13 25 -16z m-539 -41 c3 -5 4 -10 1 -10 -3 0 -8 5 -11 10 -3 6 -4 10 -1 10 3 0 8 -4 11 -10z m590 0 c3 -5 4 -10 1 -10 -3 0 -8 5 -11 10 -3 6 -4 10 -1 10 3 0 8 -4 11 -10z m50 -40 c3 -5 4 -10 1 -10 -3 0 -8 5 -11 10 -3 6 -4 10 -1 10 3 0 8 -4 11 -10z m-530 -78 c-3 -3 -11 0 -18 7 -9 10 -8 11 6 5 10 -3 15 -9 12 -12z m640 -12 c3 -5 4 -10 1 -10 -3 0 -8 5 -11 10 -3 6 -4 10 -1 10 3 0 8 -4 11 -10z m-614 -17 c13 -16 12 -17 -3 -4 -10 7 -18 15 -18 17 0 8 8 3 21 -13z m26 -28 c0 -8 -4 -12 -9 -9 -5 3 -6 10 -3 15 9 13 12 11 12 -6z m648 -5 c10 -11 16 -20 13 -20 -3 0 -13 9 -23 20 -10 11 -16 20 -13 20 3 0 13 -9 23 -20z m-600 -50 c10 -11 16 -20 13 -20 -3 0 -13 9 -23 20 -10 11 -16 20 -13 20 3 0 13 -9 23 -20z m70 -70 c3 -5 4 -10 1 -10 -3 0 -8 5 -11 10 -3 6 -4 10 -1 10 3 0 8 -4 11 -10z"/>
 <path d="M4 760 c0 -69 1 -97 3 -62 2 34 2 90 0 125 -2 34 -3 6 -3 -63z"/>
 <path d="M40 630 c0 -7 3 -10 7 -7 3 4 3 10 0 14 -4 3 -7 0 -7 -7z"/>
 </g>
<g id="layer109" fill="#7645b3" stroke="none">
 <path d="M2 1608 c2 -520 3 -569 8 -293 3 182 9 338 14 348 5 10 18 22 30 27 11 5 59 25 106 44 46 20 97 36 113 36 21 0 54 -21 124 -77 112 -91 185 -150 311 -251 51 -41 92 -75 92 -77 0 -8 -27 2 -52 19 -16 10 -28 25 -28 32 0 8 -4 14 -9 14 -4 0 -24 11 -44 24 -19 13 -38 22 -41 20 -3 -2 -4 -1 -2 2 7 9 -25 38 -57 52 -17 7 -25 17 -21 24 5 7 2 9 -9 5 -11 -4 -14 -2 -10 9 3 10 0 12 -10 8 -10 -3 -21 5 -33 25 -13 22 -21 27 -30 20 -8 -7 -15 -6 -20 2 -4 8 -3 9 4 5 25 -15 10 5 -35 48 -43 40 -50 43 -64 30 -15 -13 -16 -12 -15 13 1 22 -4 28 -32 35 -42 11 -120 -10 -87 -23 20 -8 20 -8 0 -9 -11 -2 -24 -2 -29 -1 -4 1 -13 -2 -20 -7 -6 -5 -27 -12 -46 -16 -52 -9 -66 -20 -49 -38 7 -8 21 -13 30 -11 11 3 22 -4 29 -17 13 -25 41 -59 85 -104 17 -17 42 -47 55 -66 l25 -35 0 -310 0 -311 -69 -76 c-38 -42 -78 -79 -88 -81 -11 -3 -16 -11 -13 -19 3 -8 -1 -21 -11 -28 -14 -12 -17 -12 -25 3 -8 14 -13 14 -23 4 -10 -9 -11 -14 -2 -19 6 -5 2 -8 -11 -8 -12 0 -27 8 -32 18 -7 12 -10 -77 -11 -291 l0 -307 1130 0 1130 0 0 1115 0 1115 -1130 0 -1130 0 2 -622z m1588 597 c0 -2 -10 -9 -22 -15 -22 -11 -22 -10 -4 4 21 17 26 19 26 11z m-70 -68 c0 -2 -15 -16 -32 -33 l-33 -29 29 33 c28 30 36 37 36 29z m-100 -111 c0 -3 -5 -8 -12 -12 -7 -4 -8 -3 -4 4 7 12 16 16 16 8z m-90 -100 c0 -3 -5 -8 -12 -12 -7 -4 -8 -3 -4 4 7 12 16 16 16 8z m-55 -66 c-3 -5 -11 -10 -16 -10 -6 0 -7 5 -4 10 3 6 11 10 16 10 6 0 7 -4 4 -10z m-75 -80 c-6 -11 -13 -20 -16 -20 -2 0 0 9 6 20 6 11 13 20 16 20 2 0 0 -9 -6 -20z m-54 -58 c-17 -16 -18 -16 -5 5 7 12 15 20 18 17 3 -2 -3 -12 -13 -22z m-26 -25 c0 -2 -17 -19 -37 -38 l-38 -34 34 38 c33 34 41 42 41 34z m-705 -77 c3 -5 4 -10 1 -10 -3 0 -8 5 -11 10 -3 6 -4 10 -1 10 3 0 8 -4 11 -10z m-78 -17 c-4 -3 -7 0 -7 7 0 7 3 10 7 7 3 -4 3 -10 0 -14z m713 14 c0 -2 -17 -19 -37 -38 l-38 -34 34 38 c33 34 41 42 41 34z m630 -31 c0 -3 -5 -8 -12 -12 -7 -4 -8 -3 -4 4 7 12 16 16 16 8z m-100 -80 c0 -2 -8 -10 -17 -17 -16 -13 -17 -12 -4 4 13 16 21 21 21 13z m-660 -29 c0 -2 -15 -16 -32 -33 l-33 -29 29 33 c28 30 36 37 36 29z m-586 -50 c4 4 4 0 0 -10 -4 -12 0 -19 14 -24 12 -5 22 -12 24 -18 3 -11 33 -47 95 -115 85 -92 113 -132 38 -55 -104 107 -205 221 -205 230 0 4 6 2 13 -4 8 -6 17 -8 21 -4z m1123 -24 c-4 -3 -10 -3 -14 0 -3 4 0 7 7 7 7 0 10 -3 7 -7z m-607 -7 c0 -2 -8 -10 -17 -17 -16 -13 -17 -12 -4 4 13 16 21 21 21 13z m500 -80 c0 -2 -7 -7 -16 -10 -8 -3 -12 -2 -9 4 6 10 25 14 25 6z m-195 -241 c17 -14 26 -25 21 -25 -4 0 -21 11 -38 25 -16 14 -26 25 -21 25 4 -1 22 -12 38 -25z m-605 -9 c0 -3 -5 -8 -12 -12 -7 -4 -8 -3 -4 4 7 12 16 16 16 8z m655 -36 c3 -5 4 -10 1 -10 -3 0 -8 5 -11 10 -3 6 -4 10 -1 10 3 0 8 -4 11 -10z m40 -30 c10 -11 16 -20 13 -20 -3 0 -13 9 -23 20 -10 11 -16 20 -13 20 3 0 13 -9 23 -20z m149 -124 c17 -16 23 -24 14 -17 -9 7 -23 9 -29 5 -8 -4 -9 -3 -5 5 4 7 -2 15 -16 20 -13 6 -19 10 -14 10 10 1 -45 51 -55 51 -4 0 -10 7 -13 16 -6 15 62 -36 118 -90z m-994 20 c0 -3 -5 -8 -12 -12 -7 -4 -8 -3 -4 4 7 12 16 16 16 8z m459 -60 c9 -11 9 -16 -1 -22 -7 -4 -10 -4 -6 0 4 5 -5 19 -20 33 -21 18 -22 22 -6 14 11 -5 26 -17 33 -25z m610 -20 c23 -25 23 -25 2 -19 -12 3 -26 14 -32 24 -14 27 3 24 30 -5z m-509 -101 c14 -19 14 -19 -4 -5 -31 24 -85 84 -86 95 0 10 62 -52 90 -90z m615 15 c4 -6 2 -10 -4 -10 -12 0 -61 44 -61 54 0 8 57 -30 65 -44z m91 -75 c10 -8 15 -15 11 -15 -12 0 -87 62 -87 72 0 4 13 -3 28 -17 16 -14 37 -32 48 -40z m-663 28 c-3 -7 0 -13 7 -13 6 0 8 -4 5 -10 -3 -5 -2 -10 4 -10 6 0 16 -10 22 -22 8 -16 -2 -10 -29 16 -41 39 -46 53 -18 53 8 0 12 -6 9 -14z m62 -83 c-3 -5 6 -17 20 -26 14 -9 35 -31 47 -48 15 -22 7 -17 -30 19 -43 42 -56 65 -36 65 3 0 3 -4 -1 -10z m135 -150 c6 -11 9 -20 7 -20 -2 0 -12 9 -22 20 -10 11 -13 20 -7 20 6 0 16 -9 22 -20z m41 -47 c13 -16 12 -17 -3 -4 -10 7 -18 15 -18 17 0 8 8 3 21 -13z m24 -33 c3 -5 4 -10 1 -10 -3 0 -8 5 -11 10 -3 6 -4 10 -1 10 3 0 8 -4 11 -10z m60 -60 c3 -5 4 -10 1 -10 -3 0 -8 5 -11 10 -3 6 -4 10 -1 10 3 0 8 -4 11 -10z m75 -80 c23 -27 40 -50 37 -50 -3 0 -24 23 -47 50 -23 28 -40 50 -37 50 3 0 24 -22 47 -50z m75 -90 c3 -5 4 -10 1 -10 -3 0 -8 5 -11 10 -3 6 -4 10 -1 10 3 0 8 -4 11 -10z m100 -100 c3 -5 4 -10 1 -10 -3 0 -8 5 -11 10 -3 6 -4 10 -1 10 3 0 8 -4 11 -10z"/>
 <path d="M133 1713 c4 -3 10 -3 14 0 3 4 0 7 -7 7 -7 0 -10 -3 -7 -7z"/>
 <path d="M4 760 c0 -69 1 -97 3 -62 2 34 2 90 0 125 -2 34 -3 6 -3 -63z"/>
 <path d="M40 630 c0 -7 3 -10 7 -7 3 4 3 10 0 14 -4 3 -7 0 -7 -7z"/>
 </g>
<g id="layer110" fill="#7a45c2" stroke="none">
 <path d="M2 1608 c2 -520 3 -569 8 -293 3 182 9 338 14 348 5 10 18 22 30 27 11 5 59 25 106 44 111 47 134 47 197 -6 28 -24 82 -69 121 -102 40 -32 69 -62 66 -67 -3 -5 1 -7 8 -4 7 3 38 -16 69 -43 32 -26 85 -69 118 -96 l61 -48 -42 -47 c-24 -25 -48 -45 -55 -45 -6 1 -9 -4 -7 -10 3 -7 -9 -24 -26 -39 -16 -15 -30 -33 -30 -40 0 -8 -4 -7 -10 3 -8 12 -10 10 -10 -8 0 -13 -4 -20 -10 -17 -5 3 -10 1 -10 -4 0 -14 -10 -14 -30 -1 -13 9 -13 11 0 20 8 5 10 10 4 10 -7 0 -9 11 -6 27 4 22 2 25 -12 20 -10 -4 -22 -7 -27 -7 -15 0 -10 -30 6 -36 8 -4 15 -13 15 -20 0 -8 6 -17 14 -20 8 -3 17 -13 20 -22 7 -18 -79 68 -214 216 l-85 94 0 -319 c0 -194 -4 -324 -10 -334 -30 -50 -185 -208 -205 -210 -29 -3 -45 3 -58 19 -10 13 -12 -44 -12 -291 l0 -307 1130 0 1130 0 0 1115 0 1115 -1130 0 -1130 0 2 -622z m1613 593 c-11 -5 -24 -6 -29 -3 -5 3 -6 -3 -2 -13 5 -14 4 -16 -7 -7 -8 7 -16 11 -18 9 -2 -1 1 3 7 8 6 6 25 11 40 12 24 1 26 0 9 -6z m-104 -74 c-6 -8 -7 -18 -3 -22 4 -5 3 -6 -3 -3 -5 3 -28 -16 -50 -43 -22 -26 -44 -48 -48 -48 -5 -1 17 28 48 64 32 36 60 65 62 65 3 0 0 -6 -6 -13z m-138 -162 c-15 -19 -29 -31 -31 -26 -3 10 38 58 51 60 4 1 -5 -15 -20 -34z m-43 -40 c0 -9 -62 -75 -72 -75 -5 0 8 18 29 40 38 40 43 44 43 35z m-90 -107 c0 -2 -17 -19 -37 -38 -34 -32 -30 -19 7 22 13 14 30 23 30 16z m-88 -91 c-7 -8 -8 -18 -4 -22 4 -5 2 -5 -4 -2 -13 7 -55 -38 -46 -49 4 -4 2 -4 -4 -1 -14 8 -37 -17 -26 -28 4 -5 1 -5 -6 -1 -10 6 1 23 40 65 29 31 55 56 57 54 2 -1 -1 -9 -7 -16z m32 -23 c3 -8 2 -12 -4 -9 -6 3 -10 10 -10 16 0 14 7 11 14 -7z m-147 -102 c-10 -10 -16 -21 -15 -23 2 -2 1 -3 -1 -1 -2 1 -14 -6 -25 -15 -12 -10 -5 -1 13 20 19 20 37 37 40 37 2 0 -3 -8 -12 -18z m643 -18 c0 -8 -19 -13 -24 -6 -3 5 1 9 9 9 8 0 15 -2 15 -3z m-65 -44 c3 -5 4 -10 1 -10 -3 0 -8 5 -11 10 -3 6 -4 10 -1 10 3 0 8 -4 11 -10z m-43 -42 c-14 -14 -44 -20 -36 -7 3 5 9 7 14 4 5 -3 11 -1 15 5 3 5 9 10 13 10 3 0 1 -5 -6 -12z m-661 -31 c-6 -8 -9 -17 -6 -20 3 -4 2 -5 -2 -2 -10 8 -33 -16 -26 -28 4 -6 1 -7 -6 -2 -9 5 -5 15 15 36 28 29 46 40 25 16z m549 -61 c0 -2 -7 -7 -16 -10 -8 -3 -12 -2 -9 4 6 10 25 14 25 6z m-610 -10 c0 -2 -8 -10 -17 -17 -16 -13 -17 -12 -4 4 13 16 21 21 21 13z m500 -80 c0 -2 -7 -7 -16 -10 -8 -3 -12 -2 -9 4 6 10 25 14 25 6z m-189 -248 c14 -12 42 -36 62 -51 38 -28 49 -57 23 -57 -10 0 -13 7 -11 21 3 15 0 19 -11 15 -8 -3 -13 -2 -9 3 3 5 -10 19 -28 30 -18 11 -42 29 -52 41 -23 25 -35 26 -35 1 0 -20 25 -35 41 -26 5 4 6 0 3 -8 -7 -20 -41 -35 -96 -42 -40 -5 -48 -3 -48 9 0 9 6 16 13 16 8 0 20 11 27 25 7 14 18 25 24 25 7 0 18 9 26 19 15 22 29 18 71 -21z m-31 -3 c11 -13 10 -14 -4 -9 -9 3 -16 10 -16 15 0 13 6 11 20 -6z m-580 1 c0 -3 -5 -8 -12 -12 -7 -4 -8 -3 -4 4 7 12 16 16 16 8z m620 -66 c0 -5 -2 -10 -4 -10 -3 0 -8 5 -11 10 -3 6 -1 10 4 10 6 0 11 -4 11 -10z m-190 -19 c0 -5 -7 -11 -14 -14 -10 -4 -13 -1 -9 9 6 15 23 19 23 5z m237 -8 c-4 -3 -10 -3 -14 0 -3 4 0 7 7 7 7 0 10 -3 7 -7z m126 -66 c-3 -6 -1 -7 5 -3 15 9 76 -49 67 -65 -6 -9 -3 -11 9 -6 12 5 31 -4 59 -28 23 -19 56 -46 72 -59 l30 -25 -30 3 c-21 1 -29 7 -27 17 1 9 -9 21 -23 27 -14 6 -25 17 -25 23 0 6 -6 9 -12 7 -7 -3 -19 1 -26 9 -16 15 -36 18 -27 3 11 -18 -12 -10 -30 10 -18 20 -18 21 1 14 18 -7 18 -7 -1 15 -11 13 -19 26 -18 30 1 3 -10 5 -25 4 -15 -1 -22 1 -16 5 6 4 8 16 4 26 -5 15 -9 16 -14 7 -6 -9 -13 -5 -27 16 -29 43 -23 47 21 12 22 -18 37 -36 33 -42z m-943 -11 c0 -3 -5 -8 -12 -12 -7 -4 -8 -3 -4 4 7 12 16 16 16 8z m450 -30 c-5 -5 3 -24 22 -47 26 -33 34 -37 47 -26 14 11 15 10 1 -7 -14 -18 -13 -19 2 -13 10 3 20 1 24 -5 4 -6 3 -8 -4 -4 -6 3 -13 2 -17 -4 -6 -9 8 -15 29 -11 5 1 6 -5 3 -12 -3 -8 0 -21 6 -28 8 -8 5 -8 -7 1 -34 26 -85 84 -86 98 0 8 -5 10 -12 6 -7 -4 -10 -4 -6 1 4 4 -4 16 -17 27 -28 22 -27 34 4 34 13 0 17 -4 11 -10z m650 -110 c0 -11 -19 -15 -25 -6 -3 5 1 10 9 10 9 0 16 -2 16 -4z m166 -101 c10 -8 14 -15 8 -15 -6 0 -17 7 -24 15 -10 12 -15 13 -20 4 -6 -8 -9 -8 -14 0 -4 6 -1 11 6 11 7 0 2 7 -10 16 -12 8 -22 19 -22 25 0 5 13 -2 28 -16 16 -14 37 -32 48 -40z m-656 41 c-15 -15 -12 -26 8 -26 14 0 15 -2 2 -10 -9 -6 -10 -10 -3 -10 7 0 18 -10 24 -22 8 -16 -2 -10 -30 16 -40 39 -43 63 -6 63 11 0 12 -4 5 -11z m65 -86 c-3 -5 -1 -11 5 -15 6 -4 7 -11 4 -17 -5 -7 -1 -9 9 -5 10 4 16 2 14 -6 -1 -7 4 -11 11 -9 6 1 11 -1 11 -5 -5 -31 3 -36 21 -13 16 21 21 23 32 11 11 -11 11 -13 0 -6 -15 8 -43 -24 -35 -40 4 -5 -17 12 -45 40 -34 33 -48 53 -41 61 5 6 5 15 1 19 -4 5 -1 5 6 1 7 -4 10 -11 7 -16z m35 6 c0 -3 -5 -8 -12 -12 -7 -4 -8 -3 -4 4 7 12 16 16 16 8z m70 -120 c0 -3 -5 -8 -12 -12 -7 -4 -8 -3 -4 4 7 12 16 16 16 8z m23 -43 c-3 -7 -1 -13 5 -13 5 0 18 -12 27 -27 14 -22 9 -19 -23 12 -23 22 -42 41 -42 42 0 1 9 1 19 0 11 0 17 -6 14 -14z m62 -83 c3 -5 4 -10 1 -10 -3 0 -8 5 -11 10 -3 6 -4 10 -1 10 3 0 8 -4 11 -10z m60 -60 c3 -5 4 -10 1 -10 -3 0 -8 5 -11 10 -3 6 -4 10 -1 10 3 0 8 -4 11 -10z m75 -80 c23 -27 40 -50 37 -50 -3 0 -24 23 -47 50 -23 28 -40 50 -37 50 3 0 24 -22 47 -50z m75 -90 c3 -5 4 -10 1 -10 -3 0 -8 5 -11 10 -3 6 -4 10 -1 10 3 0 8 -4 11 -10z m100 -100 c3 -5 4 -10 1 -10 -3 0 -8 5 -11 10 -3 6 -4 10 -1 10 3 0 8 -4 11 -10z"/>
 <path d="M1063 1043 c4 -3 10 -3 14 0 3 4 0 7 -7 7 -7 0 -10 -3 -7 -7z"/>
 <path d="M1390 855 c7 -9 15 -13 17 -11 7 7 -7 26 -19 26 -6 0 -6 -6 2 -15z"/>
 <path d="M984 688 c-4 -7 -3 -8 4 -4 12 7 16 16 8 16 -3 0 -8 -5 -12 -12z"/>
 <path d="M1065 590 c3 -5 8 -10 11 -10 3 0 2 5 -1 10 -3 6 -8 10 -11 10 -3 0 -2 -4 1 -10z"/>
 <path d="M226 1701 c11 -10 22 -16 27 -14 11 7 0 20 -24 26 -21 6 -21 5 -3 -12z"/>
 <path d="M75 1681 c-7 -12 12 -24 25 -16 11 7 4 25 -10 25 -5 0 -11 -4 -15 -9z"/>
 <path d="M193 1683 c4 -3 10 -3 14 0 3 4 0 7 -7 7 -7 0 -10 -3 -7 -7z"/>
 <path d="M320 1659 c0 -24 23 -21 28 4 2 10 -3 17 -12 17 -10 0 -16 -9 -16 -21z"/>
 <path d="M145 1630 c3 -5 8 -10 11 -10 2 0 4 5 4 10 0 6 -5 10 -11 10 -5 0 -7 -4 -4 -10z"/>
 <path d="M437 1628 c7 -8 11 -17 8 -19 -2 -3 5 -5 15 -5 25 0 25 0 -7 22 -20 13 -25 13 -16 2z"/>
 <path d="M388 1623 c-16 -2 -28 -9 -28 -14 0 -15 36 -10 50 6 7 8 11 14 9 14 -2 -1 -16 -4 -31 -6z"/>
 <path d="M486 1574 c-22 -21 -20 -33 7 -44 12 -5 37 -25 56 -44 19 -20 39 -36 45 -35 7 0 6 3 -1 6 -7 2 -13 9 -13 15 0 6 6 8 13 5 8 -3 20 -1 28 5 12 8 12 9 -1 6 -16 -5 -17 -4 -70 42 -19 16 -39 30 -45 29 -5 0 -4 -3 3 -6 6 -2 12 -9 12 -15 0 -6 -6 -6 -15 2 -11 9 -12 17 -4 31 12 23 6 24 -15 3z m94 -84 c0 -5 -5 -10 -11 -10 -5 0 -7 5 -4 10 3 6 8 10 11 10 2 0 4 -4 4 -10z"/>
 <path d="M303 1483 c4 -3 10 -3 14 0 3 4 0 7 -7 7 -7 0 -10 -3 -7 -7z"/>
 <path d="M637 1434 c14 -22 43 -33 43 -16 -1 14 -25 37 -42 38 -15 1 -16 0 -1 -22z"/>
 <path d="M488 1443 c7 -3 16 -2 19 1 4 3 -2 6 -13 5 -11 0 -14 -3 -6 -6z"/>
 <path d="M323 1426 c-3 -6 -2 -8 2 -3 5 4 17 -1 27 -10 18 -16 18 -16 12 2 -6 14 -4 16 7 10 8 -4 11 -4 6 0 -11 13 -47 13 -54 1z"/>
 <path d="M400 1403 c0 -15 -2 -16 -10 -3 -7 11 -8 7 -6 -15 3 -23 8 -30 24 -29 12 0 18 -4 15 -9 -3 -5 0 -8 8 -5 22 7 24 50 3 65 -24 18 -34 16 -34 -4z"/>
 <path d="M745 1380 c3 -5 8 -10 11 -10 3 0 2 5 -1 10 -3 6 -8 10 -11 10 -3 0 -2 -4 1 -10z"/>
 <path d="M697 1363 c-8 -14 12 -55 25 -51 6 2 18 15 27 28 9 13 11 21 4 17 -6 -4 -14 -3 -18 3 -7 12 -32 13 -38 3z"/>
 <path d="M466 1352 c-2 -4 -1 -14 4 -22 7 -11 9 -9 7 8 -1 24 -3 26 -11 14z"/>
 <path d="M482 1265 c6 -14 14 -25 18 -25 4 0 5 11 2 25 -2 14 -10 25 -18 25 -11 0 -11 -5 -2 -25z"/>
 <path d="M573 1274 c-10 -26 14 -41 35 -21 15 16 15 19 2 27 -21 14 -30 12 -37 -6z"/>
 <path d="M513 1273 c4 -3 10 -3 14 0 3 4 0 7 -7 7 -7 0 -10 -3 -7 -7z"/>
 <path d="M4 760 c0 -69 1 -97 3 -62 2 34 2 90 0 125 -2 34 -3 6 -3 -63z"/>
 </g>
<g id="layer111" fill="#8668a1" stroke="none">
 <path d="M2 1608 c2 -520 3 -569 8 -293 3 182 9 338 14 348 5 10 18 22 30 27 11 5 59 25 106 44 111 47 134 47 197 -6 28 -24 82 -69 121 -102 40 -32 69 -62 66 -67 -3 -5 1 -7 8 -4 7 3 38 -16 69 -43 32 -26 85 -69 118 -96 60 -47 61 -49 44 -69 -57 -63 -73 -78 -83 -72 -5 3 -7 0 -5 -8 3 -7 -8 -25 -25 -40 -16 -15 -30 -33 -30 -40 0 -8 -4 -7 -10 3 -8 12 -10 10 -10 -8 0 -15 -4 -21 -12 -16 -8 5 -9 2 -5 -9 8 -21 -2 -21 -28 -1 -17 13 -18 16 -5 24 9 6 10 10 3 10 -23 0 -25 -22 -4 -41 12 -11 21 -23 21 -27 0 -8 -95 89 -220 226 l-85 94 0 -319 c0 -194 -4 -324 -10 -334 -30 -50 -185 -208 -205 -210 -29 -3 -45 3 -58 19 -10 13 -12 -44 -12 -291 l0 -307 1130 0 1130 0 0 1115 0 1115 -1130 0 -1130 0 2 -622z m1657 575 c19 -20 19 -20 -7 -20 -14 0 -35 8 -46 18 -21 20 -36 18 -18 -3 8 -10 4 -14 -20 -15 -21 0 -26 2 -17 8 8 5 10 9 4 9 -5 0 -2 7 8 14 25 19 73 14 96 -11z m-144 -72 c0 -22 -4 -28 -17 -26 -20 4 -43 -20 -33 -34 3 -6 0 -8 -8 -5 -8 3 -20 -3 -28 -12 -12 -16 -12 -17 4 -11 12 5 16 3 11 -5 -5 -8 -2 -9 9 -5 10 3 17 2 17 -4 0 -5 -12 -8 -27 -5 -16 2 -32 5 -36 5 -7 1 100 131 107 131 1 0 2 -13 1 -29z m172 -143 c-2 -29 -3 -6 -3 52 0 58 1 81 3 53 2 -29 2 -77 0 -105z m-200 85 c-4 -3 -7 0 -7 7 0 7 3 10 7 7 3 -4 3 -10 0 -14z m30 -20 c0 -16 -2 -22 -4 -15 -3 6 -9 10 -14 6 -13 -8 -11 10 3 24 16 16 16 16 15 -15z m-117 -39 c0 -4 -12 -18 -27 -31 -21 -20 -23 -27 -12 -34 10 -6 11 -9 1 -9 -23 0 -24 28 0 53 23 25 38 33 38 21z m26 -58 c2 -14 1 -14 -3 0 -3 9 -11 13 -19 10 -9 -3 -12 -1 -9 5 10 15 30 5 31 -15z m-96 -11 c0 -9 -62 -75 -72 -75 -5 0 8 18 29 40 38 40 43 44 43 35z m20 -70 c0 -8 -4 -15 -10 -15 -5 0 -7 7 -4 15 4 8 8 15 10 15 2 0 4 -7 4 -15z m-43 -12 c-4 -3 -10 -3 -14 0 -3 4 0 7 7 7 7 0 10 -3 7 -7z m-67 -25 c0 -2 -17 -19 -37 -38 -34 -32 -30 -19 7 22 13 14 30 23 30 16z m-3 -45 c-4 -3 -10 -3 -14 0 -3 4 0 7 7 7 7 0 10 -3 7 -7z m-85 -46 c-7 -8 -8 -18 -4 -22 4 -5 2 -5 -4 -2 -13 7 -55 -38 -46 -49 4 -4 2 -4 -4 -1 -14 8 -37 -17 -26 -28 4 -5 1 -5 -6 -1 -10 6 1 23 40 65 29 31 55 56 57 54 2 -1 -1 -9 -7 -16z m32 -23 c3 -8 2 -12 -4 -9 -6 3 -10 10 -10 16 0 14 7 11 14 -7z m-147 -102 c-10 -10 -16 -21 -15 -23 2 -2 1 -3 -1 -1 -2 1 -14 -6 -25 -15 -12 -10 -5 -1 13 20 19 20 37 37 40 37 2 0 -3 -8 -12 -18z m643 -18 c0 -8 -19 -13 -24 -6 -3 5 1 9 9 9 8 0 15 -2 15 -3z m-65 -44 c3 -5 4 -10 1 -10 -3 0 -8 5 -11 10 -3 6 -4 10 -1 10 3 0 8 -4 11 -10z m-620 -10 c3 -5 4 -10 1 -10 -3 0 -8 5 -11 10 -3 6 -4 10 -1 10 3 0 8 -4 11 -10z m577 -32 c-14 -14 -44 -20 -36 -7 3 5 9 7 14 4 5 -3 11 -1 15 5 3 5 9 10 13 10 3 0 1 -5 -6 -12z m-661 -31 c-6 -8 -9 -17 -6 -20 3 -4 2 -5 -2 -2 -10 8 -33 -16 -26 -28 4 -6 1 -7 -6 -2 -9 5 -5 15 15 36 28 29 46 40 25 16z m549 -61 c0 -2 -7 -7 -16 -10 -8 -3 -12 -2 -9 4 6 10 25 14 25 6z m-610 -10 c0 -2 -8 -10 -17 -17 -16 -13 -17 -12 -4 4 13 16 21 21 21 13z m500 -80 c0 -2 -7 -7 -16 -10 -8 -3 -12 -2 -9 4 6 10 25 14 25 6z m-180 -256 c19 -17 34 -39 32 -48 -2 -15 -1 -15 8 -2 9 13 14 11 35 -13 13 -15 27 -27 30 -27 14 2 74 -53 68 -63 -3 -5 -1 -7 5 -3 15 9 76 -49 67 -65 -6 -9 -3 -11 9 -6 12 5 31 -4 59 -28 23 -19 56 -46 72 -59 l30 -25 -30 3 c-21 1 -29 7 -27 17 1 9 -9 21 -23 27 -14 6 -25 17 -25 23 0 6 -6 9 -12 7 -7 -3 -19 1 -26 9 -16 15 -36 18 -27 3 11 -18 -12 -10 -30 10 -18 20 -18 21 1 14 18 -7 18 -7 -1 15 -11 13 -19 26 -18 30 1 3 -10 5 -25 4 -15 -1 -22 1 -16 5 6 4 8 16 4 26 -5 16 -8 17 -16 5 -5 -8 -9 -17 -10 -21 -1 -5 -2 -11 -3 -15 -2 -9 -21 18 -21 30 0 5 5 5 10 2 14 -9 12 7 -4 28 -7 9 -23 17 -36 17 -20 0 -21 2 -9 17 12 14 12 16 0 8 -9 -5 -12 -4 -8 3 5 6 0 8 -13 5 -11 -3 -27 0 -35 7 -11 9 -15 9 -15 1 0 -7 -5 -9 -10 -6 -6 4 -8 11 -5 16 8 11 -28 12 -40 0 -6 -5 -34 -11 -62 -15 -44 -6 -53 -4 -53 9 0 8 6 15 13 15 8 0 20 11 27 25 7 14 18 25 24 25 7 0 18 9 26 19 16 23 27 19 80 -29z m-620 6 c0 -3 -5 -8 -12 -12 -7 -4 -8 -3 -4 4 7 12 16 16 16 8z m585 -66 c3 -5 1 -10 -4 -10 -6 0 -11 5 -11 10 0 6 2 10 4 10 3 0 8 -4 11 -10z m-155 -19 c0 -5 -7 -11 -15 -15 -8 -3 -15 -12 -15 -20 0 -9 -9 -20 -20 -26 -17 -9 -19 -8 -13 7 12 33 63 77 63 54z m200 -11 c0 -5 -5 -10 -11 -10 -5 0 -7 5 -4 10 3 6 8 10 11 10 2 0 4 -4 4 -10z m37 3 c-4 -3 -10 -3 -14 0 -3 4 0 7 7 7 7 0 10 -3 7 -7z m-317 -73 c0 -5 -7 -10 -16 -10 -8 0 -12 5 -9 10 3 6 10 10 16 10 5 0 9 -4 9 -10z m-500 -4 c0 -3 -5 -8 -12 -12 -7 -4 -8 -3 -4 4 7 12 16 16 16 8z m452 -28 c-8 -8 -3 -21 20 -49 26 -33 34 -37 47 -26 14 11 15 10 1 -7 -14 -18 -13 -19 2 -13 10 3 20 1 24 -5 4 -6 3 -8 -4 -4 -6 3 -13 2 -17 -4 -6 -9 8 -15 29 -11 5 1 6 -5 3 -12 -3 -8 0 -21 6 -28 8 -8 5 -8 -7 1 -34 26 -85 84 -86 98 0 8 -5 10 -12 6 -7 -4 -10 -4 -6 1 4 4 -4 16 -17 27 -26 20 -26 41 0 31 8 -3 15 1 15 8 0 7 3 9 7 6 4 -4 2 -12 -5 -19z m25 -10 c-3 -8 -6 -5 -6 6 -1 11 2 17 5 13 3 -3 4 -12 1 -19z m623 -102 c0 -11 -19 -15 -25 -6 -3 5 1 10 9 10 9 0 16 -2 16 -4z m166 -101 c10 -8 14 -15 8 -15 -6 0 -17 7 -24 15 -10 13 -15 13 -21 3 -4 -7 -12 -9 -16 -4 -4 5 -2 11 5 13 10 4 8 9 -7 20 -12 8 -21 18 -21 24 0 5 13 -2 28 -16 16 -14 37 -32 48 -40z m-656 41 c-15 -15 -12 -26 8 -26 14 0 15 -2 2 -10 -9 -6 -10 -10 -3 -10 7 0 18 -10 24 -22 8 -16 -2 -10 -30 16 -40 39 -43 63 -6 63 11 0 12 -4 5 -11z m65 -86 c-3 -5 -1 -11 5 -15 6 -4 7 -11 4 -17 -5 -7 -1 -9 9 -5 10 4 16 2 14 -6 -1 -7 4 -11 11 -9 6 1 11 -1 11 -5 -5 -31 3 -36 21 -13 16 21 21 23 32 11 11 -11 11 -13 0 -6 -15 8 -43 -24 -35 -40 4 -5 -17 12 -45 40 -34 33 -48 53 -41 61 5 6 5 15 1 19 -4 5 -1 5 6 1 7 -4 10 -11 7 -16z m35 6 c0 -3 -5 -8 -12 -12 -7 -4 -8 -3 -4 4 7 12 16 16 16 8z m70 -120 c0 -3 -5 -8 -12 -12 -7 -4 -8 -3 -4 4 7 12 16 16 16 8z m23 -43 c-3 -7 -1 -13 5 -13 5 0 18 -12 27 -27 14 -22 9 -19 -23 12 -23 22 -42 41 -42 42 0 1 9 1 19 0 11 0 17 -6 14 -14z m62 -83 c3 -5 4 -10 1 -10 -3 0 -8 5 -11 10 -3 6 -4 10 -1 10 3 0 8 -4 11 -10z m60 -60 c3 -5 4 -10 1 -10 -3 0 -8 5 -11 10 -3 6 -4 10 -1 10 3 0 8 -4 11 -10z m75 -80 c23 -27 40 -50 37 -50 -3 0 -24 23 -47 50 -23 28 -40 50 -37 50 3 0 24 -22 47 -50z m75 -90 c3 -5 4 -10 1 -10 -3 0 -8 5 -11 10 -3 6 -4 10 -1 10 3 0 8 -4 11 -10z m100 -100 c3 -5 4 -10 1 -10 -3 0 -8 5 -11 10 -3 6 -4 10 -1 10 3 0 8 -4 11 -10z"/>
 <path d="M1603 2193 c4 -3 10 -3 14 0 3 4 0 7 -7 7 -7 0 -10 -3 -7 -7z"/>
 <path d="M1565 2180 c3 -5 8 -10 11 -10 3 0 2 5 -1 10 -3 6 -8 10 -11 10 -3 0 -2 -4 1 -10z"/>
 <path d="M1633 2183 c4 -3 10 -3 14 0 3 4 0 7 -7 7 -7 0 -10 -3 -7 -7z"/>
 <path d="M1495 2109 c-4 -6 -5 -12 -2 -15 2 -3 7 2 10 11 7 17 1 20 -8 4z"/>
 <path d="M1100 1070 c0 -15 6 -19 25 -18 23 2 23 3 8 20 -21 24 -33 23 -33 -2z m25 0 c3 -5 1 -10 -4 -10 -6 0 -11 5 -11 10 0 6 2 10 4 10 3 0 8 -4 11 -10z"/>
 <path d="M1063 1043 c4 -3 10 -3 14 0 3 4 0 7 -7 7 -7 0 -10 -3 -7 -7z"/>
 <path d="M1390 855 c7 -9 15 -13 17 -11 7 7 -7 26 -19 26 -6 0 -6 -6 2 -15z"/>
 <path d="M984 688 c-4 -7 -3 -8 4 -4 12 7 16 16 8 16 -3 0 -8 -5 -12 -12z"/>
 <path d="M1065 590 c3 -5 8 -10 11 -10 3 0 2 5 -1 10 -3 6 -8 10 -11 10 -3 0 -2 -4 1 -10z"/>
 <path d="M435 1630 c3 -5 8 -10 11 -10 3 0 2 5 -1 10 -3 6 -8 10 -11 10 -3 0 -2 -4 1 -10z"/>
 <path d="M605 1480 c-3 -6 1 -7 9 -4 18 7 21 14 7 14 -6 0 -13 -4 -16 -10z"/>
 <path d="M583 1453 c4 -3 10 -3 14 0 3 4 0 7 -7 7 -7 0 -10 -3 -7 -7z"/>
 <path d="M625 1450 c3 -5 8 -10 11 -10 3 0 2 5 -1 10 -3 6 -8 10 -11 10 -3 0 -2 -4 1 -10z"/>
 <path d="M324 1428 c-4 -7 -3 -8 4 -4 12 7 16 16 8 16 -3 0 -8 -5 -12 -12z"/>
 <path d="M365 1430 c3 -5 8 -10 11 -10 3 0 2 5 -1 10 -3 6 -8 10 -11 10 -3 0 -2 -4 1 -10z"/>
 <path d="M745 1380 c3 -5 8 -10 11 -10 3 0 2 5 -1 10 -3 6 -8 10 -11 10 -3 0 -2 -4 1 -10z"/>
 <path d="M387 1359 c7 -7 15 -10 18 -7 3 3 -2 9 -12 12 -14 6 -15 5 -6 -5z"/>
 <path d="M513 1273 c4 -3 10 -3 14 0 3 4 0 7 -7 7 -7 0 -10 -3 -7 -7z"/>
 <path d="M4 760 c0 -69 1 -97 3 -62 2 34 2 90 0 125 -2 34 -3 6 -3 -63z"/>
 </g>
<g id="layer112" fill="#8d69b7" stroke="none">
 <path d="M2 1608 c2 -520 3 -569 8 -293 3 182 9 338 14 348 9 19 31 30 146 77 111 45 120 43 230 -48 52 -43 164 -133 248 -201 150 -121 152 -124 135 -144 -57 -63 -73 -78 -83 -72 -5 3 -7 0 -5 -8 3 -7 -8 -25 -25 -40 -16 -15 -30 -33 -30 -40 0 -8 -4 -7 -10 3 -8 12 -10 10 -10 -8 0 -15 -4 -21 -12 -16 -8 5 -9 2 -5 -9 8 -21 -2 -21 -28 -1 -17 13 -18 16 -5 24 9 6 10 10 3 10 -23 0 -25 -22 -4 -41 12 -11 21 -23 21 -27 0 -8 -110 105 -225 231 l-80 88 0 -318 c0 -194 -4 -324 -10 -334 -5 -9 -33 -42 -61 -72 -29 -31 -54 -60 -56 -64 -2 -4 -19 -22 -38 -40 -46 -42 -85 -49 -105 -20 -14 19 -15 -9 -15 -286 l0 -307 1130 0 1130 0 0 1115 0 1115 -1130 0 -1130 0 2 -622z m1657 575 c19 -20 19 -20 -7 -20 -14 0 -35 8 -46 18 -21 20 -36 18 -18 -3 8 -10 4 -14 -20 -15 -21 0 -26 2 -17 8 8 5 10 9 4 9 -5 0 -2 7 8 14 25 19 73 14 96 -11z m-144 -72 c0 -22 -4 -28 -17 -26 -20 4 -43 -20 -33 -34 3 -6 0 -8 -8 -5 -8 3 -20 -3 -28 -12 -12 -16 -12 -17 4 -11 12 5 16 3 11 -5 -5 -8 -2 -9 9 -5 10 3 17 2 17 -4 0 -6 -14 -8 -35 -5 -23 4 -35 2 -35 -5 0 -7 -12 -23 -27 -36 -21 -20 -23 -27 -12 -34 10 -6 11 -9 1 -9 -24 0 -25 30 -1 53 13 12 53 55 88 95 35 39 65 72 65 72 1 0 2 -13 1 -29z m172 -143 c-2 -29 -3 -6 -3 52 0 58 1 81 3 53 2 -29 2 -77 0 -105z m-200 85 c-4 -3 -7 0 -7 7 0 7 3 10 7 7 3 -4 3 -10 0 -14z m30 -20 c0 -16 -2 -22 -4 -15 -3 6 -9 10 -14 6 -13 -8 -11 10 3 24 16 16 16 16 15 -15z m-91 -97 c2 -14 1 -14 -3 0 -3 9 -11 13 -19 10 -9 -3 -12 -1 -9 5 10 15 30 5 31 -15z m-96 -11 c0 -10 -63 -75 -73 -75 -6 0 7 18 29 40 39 40 44 44 44 35z m20 -70 c0 -8 -4 -15 -10 -15 -5 0 -7 7 -4 15 4 8 8 15 10 15 2 0 4 -7 4 -15z m-43 -12 c-4 -3 -10 -3 -14 0 -3 4 0 7 7 7 7 0 10 -3 7 -7z m-115 -74 c-29 -28 -49 -56 -45 -62 3 -5 2 -7 -4 -4 -12 8 -54 -38 -45 -49 4 -4 2 -4 -4 -1 -7 4 -17 0 -24 -8 -7 -8 -9 -15 -5 -15 4 0 -4 -9 -19 -21 -14 -11 -23 -25 -20 -31 4 -7 2 -8 -5 -4 -6 4 -14 0 -17 -8 -3 -9 -11 -16 -16 -16 -6 0 9 21 32 48 120 133 206 221 214 222 5 0 -14 -23 -42 -51z m45 4 c-4 -3 -10 -3 -14 0 -3 4 0 7 7 7 7 0 10 -3 7 -7z m-53 -69 c3 -8 2 -12 -4 -9 -6 3 -10 10 -10 16 0 14 7 11 14 -7z m496 -120 c0 -8 -19 -13 -24 -6 -3 5 1 9 9 9 8 0 15 -2 15 -3z m-50 -39 c0 -2 -6 -8 -13 -14 -10 -8 -14 -7 -14 2 0 8 6 14 14 14 7 0 13 -1 13 -2z m-667 -20 c-3 -9 -8 -14 -10 -11 -3 3 -2 9 2 15 9 16 15 13 8 -4z m32 5 c3 -5 4 -10 1 -10 -3 0 -8 5 -11 10 -3 6 -4 10 -1 10 3 0 8 -4 11 -10z m570 -40 c-17 -19 -41 -18 -29 1 3 5 9 7 14 4 5 -3 11 -1 15 5 3 5 9 10 12 10 3 0 -2 -9 -12 -20z m-639 -11 c-14 -11 -23 -26 -19 -32 3 -7 3 -9 -2 -5 -11 11 -36 -12 -28 -26 3 -6 3 -8 -1 -4 -5 4 -18 -3 -30 -16 -17 -18 -18 -18 -6 -1 25 35 94 105 103 105 6 0 -2 -9 -17 -21z m539 -69 c-10 -11 -23 -20 -29 -20 -6 0 0 9 14 20 32 25 38 25 15 0z m-70 -55 c-16 -13 -34 -24 -39 -25 -6 0 5 11 24 25 44 32 54 32 15 0z m-45 -39 c0 -2 -7 -7 -16 -10 -8 -3 -12 -2 -9 4 6 10 25 14 25 6z m-45 -36 c-3 -5 -12 -10 -18 -10 -7 0 -6 4 3 10 19 12 23 12 15 0z m-60 -39 c3 -5 2 -12 -3 -15 -5 -3 -9 1 -9 9 0 17 3 19 12 6z m-74 -74 c-10 -9 -11 -8 -5 6 3 10 9 15 12 12 3 -3 0 -11 -7 -18z m-31 -21 c0 -3 -5 -8 -12 -12 -7 -4 -8 -3 -4 4 7 12 16 16 16 8z m65 -109 c33 -28 59 -54 58 -59 -2 -4 0 -7 5 -6 12 5 82 -54 76 -63 -3 -5 1 -6 8 -4 17 7 73 -50 64 -64 -4 -7 0 -10 11 -8 17 2 44 -17 131 -89 l26 -21 -27 0 c-15 0 -30 4 -34 10 -4 6 -1 7 8 2 8 -4 -3 9 -25 29 -21 21 -41 35 -43 32 -3 -3 -12 1 -20 9 -16 17 -37 20 -28 5 11 -18 -12 -10 -30 10 -18 20 -18 21 1 14 18 -7 18 -7 -1 15 -11 13 -19 26 -18 30 1 3 -10 5 -25 4 -15 -1 -22 1 -15 5 8 5 9 13 3 22 -9 14 -24 8 -26 -11 -3 -22 -5 -23 -14 -9 -13 20 -13 33 0 25 14 -9 12 7 -4 28 -7 9 -23 17 -36 17 -19 0 -20 2 -10 15 13 15 8 19 -23 15 -10 -1 -25 4 -33 10 -11 10 -14 10 -14 1 0 -7 -5 -9 -10 -6 -6 4 -8 11 -5 16 8 11 -28 12 -40 0 -6 -5 -34 -11 -62 -15 -44 -6 -53 -4 -53 9 0 8 6 15 13 15 8 0 20 11 27 25 7 14 18 25 24 25 7 0 18 9 26 19 17 24 31 18 115 -52z m-677 3 c-22 -30 -35 -41 -22 -17 9 16 36 47 41 47 2 0 -6 -13 -19 -30z m607 -40 c3 -5 1 -10 -4 -10 -6 0 -11 5 -11 10 0 6 2 10 4 10 3 0 8 -4 11 -10z m-655 -14 c0 -3 -5 -8 -12 -12 -7 -4 -8 -3 -4 4 7 12 16 16 16 8z m500 -5 c0 -5 -7 -11 -15 -15 -8 -3 -15 -12 -15 -20 0 -9 -9 -20 -20 -26 -17 -9 -19 -8 -13 7 12 33 63 77 63 54z m200 -11 c0 -5 -5 -10 -11 -10 -5 0 -7 5 -4 10 3 6 8 10 11 10 2 0 4 -4 4 -10z m37 3 c-4 -3 -10 -3 -14 0 -3 4 0 7 7 7 7 0 10 -3 7 -7z m-787 -47 c0 -2 -7 -7 -16 -10 -8 -3 -12 -2 -9 4 6 10 25 14 25 6z m470 -26 c0 -5 -7 -10 -16 -10 -8 0 -12 5 -9 10 3 6 10 10 16 10 5 0 9 -4 9 -10z m-500 -4 c0 -2 -8 -10 -17 -17 -16 -13 -17 -12 -4 4 13 16 21 21 21 13z m452 -28 c-8 -8 -3 -21 20 -49 26 -33 34 -37 47 -26 14 11 15 10 1 -7 -14 -18 -13 -19 2 -13 10 3 20 1 24 -5 4 -6 3 -8 -4 -4 -6 3 -13 2 -17 -4 -6 -9 8 -15 29 -11 5 1 6 -5 3 -13 -8 -20 15 -36 43 -31 18 3 21 2 12 -7 -16 -16 -15 -28 3 -28 8 0 14 -3 13 -7 -1 -5 4 -19 11 -33 13 -25 -52 38 -167 163 -58 63 -72 94 -37 80 8 -3 15 1 15 8 0 7 3 9 7 6 4 -4 2 -12 -5 -19z m25 -10 c-3 -8 -6 -5 -6 6 -1 11 2 17 5 13 3 -3 4 -12 1 -19z m-517 -2 c0 -3 -5 -8 -12 -12 -7 -4 -8 -3 -4 4 7 12 16 16 16 8z m410 -9 c0 -2 -12 -14 -27 -28 l-28 -24 24 28 c23 25 31 32 31 24z m-450 -37 c0 -5 -5 -10 -11 -10 -5 0 -7 5 -4 10 3 6 8 10 11 10 2 0 4 -4 4 -10z m380 -24 c0 -3 -5 -8 -12 -12 -7 -4 -8 -3 -4 4 7 12 16 16 16 8z m800 -30 c0 -11 -19 -15 -25 -6 -3 5 1 10 9 10 9 0 16 -2 16 -4z m180 -113 c0 -2 -9 -3 -20 -3 -11 0 -19 3 -19 8 3 19 -2 26 -11 12 -5 -8 -13 -11 -17 -6 -4 5 -2 11 5 13 10 4 8 9 -7 20 -12 8 -21 19 -21 24 0 6 20 -7 45 -28 25 -20 45 -39 45 -40z m-1110 43 c0 -3 -5 -8 -12 -12 -7 -4 -8 -3 -4 4 7 12 16 16 16 8z m505 -76 c-3 -5 -1 -11 5 -15 6 -4 7 -11 4 -17 -5 -7 -1 -9 9 -5 10 4 16 2 14 -6 -1 -7 4 -11 11 -9 6 1 11 -1 11 -5 -5 -31 3 -36 21 -13 16 21 21 23 32 12 11 -11 10 -12 -4 -7 -13 5 -19 0 -24 -20 l-7 -27 -48 48 c-34 33 -45 51 -39 59 5 7 6 16 2 20 -4 5 -1 5 6 1 7 -4 10 -11 7 -16z m35 6 c0 -3 -5 -8 -12 -12 -7 -4 -8 -3 -4 4 7 12 16 16 16 8z m-650 -20 c0 -3 -5 -8 -12 -12 -7 -4 -8 -3 -4 4 7 12 16 16 16 8z m714 -111 c-5 -13 6 -20 28 -16 4 0 5 -6 2 -14 -4 -8 -2 -15 4 -15 5 0 18 -12 27 -27 12 -18 0 -10 -33 22 -36 34 -48 51 -39 57 17 11 17 10 11 -7z m116 -137 c0 -12 -6 -9 -26 13 -19 22 -19 22 4 8 12 -8 22 -17 22 -21z m69 -71 c20 -22 46 -51 59 -65 13 -13 21 -27 18 -30 -3 -3 -7 -3 -9 -1 -1 2 -32 38 -67 78 -66 77 -67 91 -1 18z m171 -198 c0 -6 5 -7 12 -3 6 4 8 3 4 -4 -3 -6 2 -13 13 -17 11 -3 22 -12 25 -20 10 -26 -34 9 -81 64 -52 60 -56 73 -8 25 19 -19 35 -39 35 -45z"/>
 <path d="M1603 2193 c4 -3 10 -3 14 0 3 4 0 7 -7 7 -7 0 -10 -3 -7 -7z"/>
 <path d="M1565 2180 c3 -5 8 -10 11 -10 3 0 2 5 -1 10 -3 6 -8 10 -11 10 -3 0 -2 -4 1 -10z"/>
 <path d="M1633 2183 c4 -3 10 -3 14 0 3 4 0 7 -7 7 -7 0 -10 -3 -7 -7z"/>
 <path d="M1495 2109 c-4 -6 -5 -12 -2 -15 2 -3 7 2 10 11 7 17 1 20 -8 4z"/>
 <path d="M1100 1070 c0 -15 6 -19 25 -18 23 2 23 3 8 20 -21 24 -33 23 -33 -2z m25 0 c3 -5 1 -10 -4 -10 -6 0 -11 5 -11 10 0 6 2 10 4 10 3 0 8 -4 11 -10z"/>
 <path d="M1063 1043 c4 -3 10 -3 14 0 3 4 0 7 -7 7 -7 0 -10 -3 -7 -7z"/>
 <path d="M1200 1010 c0 -7 3 -10 7 -7 3 4 3 10 0 14 -4 3 -7 0 -7 -7z"/>
 <path d="M1390 855 c7 -9 15 -13 17 -11 7 7 -7 26 -19 26 -6 0 -6 -6 2 -15z"/>
 <path d="M984 688 c-4 -7 -3 -8 4 -4 12 7 16 16 8 16 -3 0 -8 -5 -12 -12z"/>
 <path d="M1065 590 c3 -5 8 -10 11 -10 3 0 2 5 -1 10 -3 6 -8 10 -11 10 -3 0 -2 -4 1 -10z"/>
 <path d="M435 1630 c3 -5 8 -10 11 -10 3 0 2 5 -1 10 -3 6 -8 10 -11 10 -3 0 -2 -4 1 -10z"/>
 <path d="M605 1480 c-3 -6 1 -7 9 -4 18 7 21 14 7 14 -6 0 -13 -4 -16 -10z"/>
 <path d="M583 1453 c4 -3 10 -3 14 0 3 4 0 7 -7 7 -7 0 -10 -3 -7 -7z"/>
 <path d="M625 1450 c3 -5 8 -10 11 -10 3 0 2 5 -1 10 -3 6 -8 10 -11 10 -3 0 -2 -4 1 -10z"/>
 <path d="M324 1428 c-4 -7 -3 -8 4 -4 12 7 16 16 8 16 -3 0 -8 -5 -12 -12z"/>
 <path d="M365 1430 c3 -5 8 -10 11 -10 3 0 2 5 -1 10 -3 6 -8 10 -11 10 -3 0 -2 -4 1 -10z"/>
 <path d="M745 1380 c3 -5 8 -10 11 -10 3 0 2 5 -1 10 -3 6 -8 10 -11 10 -3 0 -2 -4 1 -10z"/>
 <path d="M387 1359 c7 -7 15 -10 18 -7 3 3 -2 9 -12 12 -14 6 -15 5 -6 -5z"/>
 <path d="M513 1273 c4 -3 10 -3 14 0 3 4 0 7 -7 7 -7 0 -10 -3 -7 -7z"/>
 <path d="M4 760 c0 -69 1 -97 3 -62 2 34 2 90 0 125 -2 34 -3 6 -3 -63z"/>
 </g>
<g id="layer113" fill="#8956c3" stroke="none">
 <path d="M2 1608 c2 -528 3 -571 8 -287 4 255 8 340 18 352 18 21 212 97 248 97 22 0 55 -21 130 -82 56 -46 167 -136 248 -202 144 -116 146 -119 129 -139 -57 -63 -73 -78 -83 -72 -5 3 -7 0 -5 -8 3 -7 -8 -25 -25 -40 -16 -15 -30 -33 -30 -40 0 -8 -4 -7 -10 3 -8 12 -10 10 -10 -8 0 -15 -4 -21 -12 -16 -8 5 -9 2 -5 -9 8 -20 -4 -22 -22 -5 -11 11 -11 9 -2 -9 6 -13 9 -23 6 -23 -8 0 -93 89 -204 214 -51 58 -94 106 -95 106 0 0 -1 -143 -1 -317 0 -194 -4 -324 -10 -335 -5 -9 -31 -39 -58 -66 -26 -28 -47 -55 -47 -60 0 -5 -12 -18 -27 -27 l-26 -18 24 -19 c19 -15 20 -17 4 -11 -21 10 -27 10 -63 -2 -20 -7 -26 -17 -23 -38 3 -18 -40 20 -48 43 -6 16 -10 -82 -10 -283 l-1 -307 1130 0 1130 0 0 1115 0 1115 -1130 0 -1130 0 2 -622z m1657 575 c19 -20 19 -20 -7 -20 -14 0 -35 8 -46 18 -22 21 -35 17 -17 -5 10 -12 9 -14 -6 -12 -10 2 -29 -1 -43 -5 -23 -9 -23 -7 7 20 37 34 82 36 112 4z m-144 -72 c0 -22 -4 -28 -17 -26 -20 4 -43 -20 -33 -34 3 -6 0 -8 -8 -5 -8 3 -20 -3 -28 -12 -12 -16 -12 -17 4 -11 12 5 16 3 11 -5 -5 -8 -2 -9 9 -5 10 3 17 2 17 -4 0 -6 -14 -8 -35 -5 -23 4 -35 2 -35 -5 0 -7 -12 -23 -27 -36 -21 -20 -23 -27 -12 -34 8 -5 9 -9 4 -9 -6 0 -16 5 -22 11 -8 8 -13 6 -17 -9 -7 -21 -84 -97 -92 -89 -3 2 10 17 29 34 18 16 41 40 50 53 13 19 198 220 202 220 1 0 1 -13 0 -29z m172 -143 c-2 -29 -3 -6 -3 52 0 58 1 81 3 53 2 -29 2 -77 0 -105z m-200 85 c-4 -3 -7 0 -7 7 0 7 3 10 7 7 3 -4 3 -10 0 -14z m30 -20 c0 -16 -2 -22 -4 -15 -3 6 -9 10 -14 6 -13 -8 -11 10 3 24 16 16 16 16 15 -15z m-91 -97 c2 -14 1 -14 -3 0 -3 9 -11 13 -19 10 -9 -3 -12 -1 -9 5 10 15 30 5 31 -15z m-76 -81 c0 -8 -4 -15 -10 -15 -5 0 -7 7 -4 15 4 8 8 15 10 15 2 0 4 -7 4 -15z m-43 -12 c-4 -3 -10 -3 -14 0 -3 4 0 7 7 7 7 0 10 -3 7 -7z m-104 -65 c-40 -41 -41 -44 -26 -68 l15 -25 -21 25 c-17 21 -21 22 -21 8 0 -10 -3 -17 -7 -15 -12 3 -52 -40 -45 -49 4 -4 1 -4 -5 0 -7 4 -13 3 -13 -3 0 -6 -11 -21 -25 -35 -14 -14 -25 -28 -25 -32 0 -4 -9 -15 -21 -25 -11 -10 -18 -22 -15 -28 3 -5 -3 -7 -14 -4 -14 4 -20 0 -20 -11 0 -9 -25 -42 -55 -72 -30 -31 -55 -60 -55 -64 0 -4 -9 -10 -21 -13 -26 -7 -24 -4 111 143 58 63 145 159 194 213 49 53 93 97 99 97 6 0 -7 -19 -30 -42z m34 -5 c-4 -3 -10 -3 -14 0 -3 4 0 7 7 7 7 0 10 -3 7 -7z m453 -176 c0 -2 -11 -14 -24 -26 -18 -17 -26 -19 -31 -10 -5 8 -4 10 3 5 7 -4 12 -1 12 8 0 8 6 17 13 19 15 7 27 8 27 4z m-60 -50 c0 -2 -9 -12 -19 -21 -19 -17 -19 -17 -14 3 3 12 12 21 19 21 8 0 14 -2 14 -3z m-61 -53 c-7 -9 -40 -37 -74 -62 -33 -25 -86 -68 -117 -95 -32 -27 -58 -44 -58 -39 0 6 34 37 76 69 42 32 96 77 120 101 43 41 81 60 53 26z m-259 -102 c0 -13 -12 -22 -22 -16 -10 6 -1 24 13 24 5 0 9 -4 9 -8z m-40 -142 c-25 -22 -49 -40 -55 -40 -5 0 -2 5 8 11 9 6 14 15 11 21 -4 7 -2 8 5 4 6 -4 21 3 34 18 12 14 27 26 32 25 6 0 -10 -18 -35 -39z m-133 -17 c-4 -3 -10 -3 -14 0 -3 4 0 7 7 7 7 0 10 -3 7 -7z m58 -42 c-3 -5 -23 -23 -44 -40 -33 -27 -38 -28 -34 -11 3 11 9 17 14 15 4 -3 16 6 26 19 16 23 52 38 38 17z m-625 -111 c-18 -16 -30 -30 -26 -30 3 0 -4 -11 -16 -24 -13 -13 -26 -21 -30 -19 -5 2 -8 -3 -8 -11 0 -9 -9 -21 -20 -28 -11 -7 -20 -17 -20 -21 0 -5 -18 -26 -40 -47 -22 -21 -40 -44 -40 -51 0 -7 -3 -10 -6 -6 -7 7 -26 -10 -41 -37 -6 -10 -13 -14 -16 -9 -3 5 13 29 36 53 23 25 59 65 81 90 80 92 156 170 168 170 6 0 -4 -13 -22 -30z m635 -43 c33 -28 59 -55 57 -61 -2 -6 0 -8 4 -4 10 11 35 -12 27 -25 -3 -6 -1 -7 6 -3 13 8 121 -78 121 -96 0 -7 -5 -7 -13 1 -8 6 -17 8 -21 4 -4 -4 -9 3 -13 16 -5 18 -10 21 -32 16 -14 -3 -21 -2 -14 2 8 6 9 14 3 23 -9 14 -24 8 -26 -11 -3 -22 -5 -23 -14 -9 -13 20 -13 33 0 25 14 -9 12 7 -4 28 -7 9 -23 17 -35 17 -12 0 -21 6 -21 16 0 9 5 12 12 8 6 -4 8 -3 5 4 -4 5 -16 8 -27 5 -11 -3 -27 0 -35 7 -11 9 -15 9 -15 1 0 -7 -5 -9 -10 -6 -6 4 -8 11 -5 16 8 11 -28 12 -40 0 -6 -5 -34 -11 -62 -15 -44 -6 -53 -4 -53 9 0 8 6 15 13 15 8 0 20 11 27 25 7 14 18 25 24 25 7 0 18 9 26 19 17 24 31 18 115 -52z m-70 -37 c3 -5 1 -10 -4 -10 -6 0 -11 5 -11 10 0 6 2 10 4 10 3 0 8 -4 11 -10z m-155 -19 c0 -5 -7 -11 -15 -15 -8 -3 -15 -12 -15 -20 0 -9 -9 -20 -20 -26 -17 -9 -19 -8 -13 7 12 33 63 77 63 54z m200 -11 c0 -5 -5 -10 -11 -10 -5 0 -7 5 -4 10 3 6 8 10 11 10 2 0 4 -4 4 -10z m37 3 c-4 -3 -10 -3 -14 0 -3 4 0 7 7 7 7 0 10 -3 7 -7z m-317 -73 c0 -5 -7 -10 -16 -10 -8 0 -12 5 -9 10 3 6 10 10 16 10 5 0 9 -4 9 -10z m-48 -32 c-17 -17 46 -92 65 -76 11 9 12 7 7 -7 -5 -12 -4 -16 4 -11 6 3 14 1 18 -5 4 -7 3 -9 -4 -5 -6 3 -13 2 -17 -4 -6 -9 8 -15 29 -11 5 1 6 -5 3 -13 -7 -18 2 -25 36 -28 18 -2 23 -7 19 -20 -2 -10 1 -18 7 -18 7 0 9 -4 6 -10 -3 -5 -2 -10 4 -10 5 0 13 -9 16 -20 3 -11 11 -20 16 -20 6 0 7 5 3 12 -4 7 -3 8 5 4 6 -4 9 -10 7 -14 -2 -4 2 -16 10 -27 8 -10 14 -15 14 -10 0 4 14 -8 32 -29 23 -27 33 -33 40 -24 5 8 6 0 4 -19 -4 -35 8 -44 40 -32 11 4 27 3 35 -2 11 -7 9 -9 -8 -9 -34 0 -35 -14 -3 -50 17 -19 30 -38 30 -42 0 -5 5 -6 10 -3 6 3 10 -2 10 -12 0 -21 10 -31 -150 147 -115 127 -155 171 -267 293 -66 70 -77 93 -43 82 13 -4 20 -2 20 6 0 7 3 9 7 6 4 -4 2 -12 -5 -19z m25 -10 c-3 -8 -6 -5 -6 6 -1 11 2 17 5 13 3 -3 4 -12 1 -19z m-77 9 c0 -2 -61 -53 -136 -113 -75 -60 -149 -121 -166 -136 -16 -16 -33 -28 -38 -28 -5 0 -15 -8 -22 -18 -7 -9 -33 -33 -58 -52 -25 -19 -46 -38 -48 -42 -2 -5 -9 -8 -15 -8 -7 1 -3 8 9 18 11 9 22 22 25 27 2 6 7 9 12 7 4 -1 7 3 7 10 0 6 3 9 6 6 3 -4 22 11 42 31 20 21 66 60 101 87 35 27 80 64 100 81 20 18 42 33 49 33 7 0 10 5 7 10 -4 6 7 15 24 21 17 6 30 14 30 17 -3 19 2 45 7 40 4 -5 28 0 62 11 1 1 2 0 2 -2z m628 -29 c4 13 31 -6 117 -81 l40 -34 -28 0 c-17 0 -31 6 -35 16 -7 20 -53 64 -59 57 -3 -3 -12 1 -20 9 -16 17 -37 20 -28 5 11 -18 -12 -10 -30 10 -18 20 -18 21 0 14 14 -6 16 -4 10 7 -7 11 -5 11 10 -1 14 -12 19 -12 23 -2z m72 -82 c0 -11 -19 -15 -25 -6 -3 5 1 10 9 10 9 0 16 -2 16 -4z m175 -107 c4 -5 -3 -9 -14 -9 -12 0 -21 4 -21 10 0 5 -7 7 -16 3 -12 -4 -15 -2 -12 8 3 8 -1 20 -9 27 -7 7 -13 18 -13 24 0 10 74 -45 85 -63z m-565 -33 c0 -3 -5 -8 -12 -12 -7 -4 -8 -3 -4 4 7 12 16 16 16 8z m75 -66 c3 -6 -1 -7 -9 -4 -10 4 -16 1 -16 -7 0 -7 -3 -10 -6 -6 -7 7 4 27 16 27 5 0 12 -4 15 -10z m-1071 -19 c-2 -3 8 -11 23 -18 26 -12 26 -12 3 -7 -14 4 -36 12 -50 19 l-25 13 27 -1 c14 -1 24 -4 22 -6z m185 -67 c10 -9 -65 -3 -78 5 -10 6 1 8 30 4 24 -3 46 -7 48 -9z m978 -21 c-4 -3 -7 0 -7 7 0 7 3 10 7 7 3 -4 3 -10 0 -14z m60 -133 c3 -11 12 -20 19 -20 8 0 14 -5 14 -11 0 -5 4 -8 9 -5 5 3 14 -8 21 -24 8 -18 20 -30 31 -30 14 0 19 -7 19 -25 0 -18 5 -25 19 -25 11 0 21 -4 23 -9 2 -5 22 -30 45 -54 23 -25 39 -47 36 -51 -3 -3 8 -9 26 -12 21 -5 29 -10 22 -17 -22 -22 -62 9 -176 135 -147 161 -152 168 -130 168 9 0 19 -9 22 -20z m111 -2 c-3 -7 -12 -14 -21 -16 -12 -2 -15 1 -11 12 7 19 38 22 32 4z m235 -115 c4 -53 6 -98 4 -99 -1 -1 -21 -5 -44 -9 -35 -5 -43 -4 -43 9 0 8 -9 20 -20 26 -11 6 -20 20 -20 30 0 13 7 20 20 20 18 0 20 7 20 60 l0 60 38 0 39 0 6 -97z"/>
 <path d="M1603 2193 c4 -3 10 -3 14 0 3 4 0 7 -7 7 -7 0 -10 -3 -7 -7z"/>
 <path d="M1556 2182 c-3 -5 1 -9 9 -9 8 0 12 4 9 9 -3 4 -7 8 -9 8 -2 0 -6 -4 -9 -8z"/>
 <path d="M1633 2183 c4 -3 10 -3 14 0 3 4 0 7 -7 7 -7 0 -10 -3 -7 -7z"/>
 <path d="M1495 2109 c-4 -6 -5 -12 -2 -15 2 -3 7 2 10 11 7 17 1 20 -8 4z"/>
 <path d="M1100 1070 c0 -15 6 -19 25 -18 23 2 23 3 8 20 -21 24 -33 23 -33 -2z m25 0 c3 -5 1 -10 -4 -10 -6 0 -11 5 -11 10 0 6 2 10 4 10 3 0 8 -4 11 -10z"/>
 <path d="M1063 1043 c4 -3 10 -3 14 0 3 4 0 7 -7 7 -7 0 -10 -3 -7 -7z"/>
 <path d="M1200 1010 c0 -7 3 -10 7 -7 3 4 3 10 0 14 -4 3 -7 0 -7 -7z"/>
 <path d="M1505 120 c3 -5 8 -10 11 -10 3 0 2 5 -1 10 -3 6 -8 10 -11 10 -3 0 -2 -4 1 -10z"/>
 <path d="M1610 156 c0 -9 8 -12 27 -8 25 5 25 6 8 13 -29 11 -35 10 -35 -5z"/>
 <path d="M435 1630 c3 -5 8 -10 11 -10 3 0 2 5 -1 10 -3 6 -8 10 -11 10 -3 0 -2 -4 1 -10z"/>
 <path d="M605 1480 c-3 -6 1 -7 9 -4 18 7 21 14 7 14 -6 0 -13 -4 -16 -10z"/>
 <path d="M583 1453 c4 -3 10 -3 14 0 3 4 0 7 -7 7 -7 0 -10 -3 -7 -7z"/>
 <path d="M625 1450 c3 -5 8 -10 11 -10 3 0 2 5 -1 10 -3 6 -8 10 -11 10 -3 0 -2 -4 1 -10z"/>
 <path d="M324 1428 c-4 -7 -3 -8 4 -4 12 7 16 16 8 16 -3 0 -8 -5 -12 -12z"/>
 <path d="M365 1430 c3 -5 8 -10 11 -10 3 0 2 5 -1 10 -3 6 -8 10 -11 10 -3 0 -2 -4 1 -10z"/>
 <path d="M745 1380 c3 -5 8 -10 11 -10 3 0 2 5 -1 10 -3 6 -8 10 -11 10 -3 0 -2 -4 1 -10z"/>
 <path d="M387 1359 c7 -7 15 -10 18 -7 3 3 -2 9 -12 12 -14 6 -15 5 -6 -5z"/>
 <path d="M513 1273 c4 -3 10 -3 14 0 3 4 0 7 -7 7 -7 0 -10 -3 -7 -7z"/>
 <path d="M555 1179 c-11 -16 -1 -19 13 -3 7 8 8 14 3 14 -5 0 -13 -5 -16 -11z"/>
 <path d="M4 760 c0 -69 1 -97 3 -62 2 34 2 90 0 125 -2 34 -3 6 -3 -63z"/>
 </g>
<g id="layer114" fill="#9666ce" stroke="none">
 <path d="M2 1608 c2 -529 3 -572 8 -286 4 282 7 340 20 352 23 23 209 96 244 96 24 0 54 -19 132 -82 145 -119 392 -319 397 -321 2 -1 56 55 121 126 66 72 122 124 128 121 7 -5 8 -2 4 5 -10 15 23 53 37 44 5 -3 7 -1 4 4 -4 6 3 19 15 29 12 11 18 14 15 7 -4 -6 -3 -14 2 -18 6 -3 8 4 6 15 -3 15 23 51 97 133 342 381 338 377 377 377 21 0 41 -9 56 -25 l25 -24 0 -285 0 -284 -50 -42 c-27 -23 -50 -38 -50 -34 0 5 -7 -1 -15 -13 -9 -13 -44 -44 -78 -70 -34 -26 -87 -68 -118 -94 -44 -39 -58 -46 -69 -36 -10 10 -12 9 -7 -5 4 -13 -7 -28 -41 -55 -26 -20 -61 -50 -79 -66 -19 -18 -36 -26 -44 -22 -7 5 -10 4 -6 -2 4 -6 0 -16 -8 -23 -13 -11 -13 -8 -4 19 6 17 15 29 19 26 5 -3 11 -1 15 5 3 5 23 17 43 27 26 13 32 19 20 21 -10 2 -18 7 -18 12 0 5 8 7 18 3 15 -6 15 -3 -3 18 l-20 24 24 -20 c18 -15 23 -16 19 -5 -4 11 1 16 13 17 10 1 19 -3 19 -8 0 -6 -5 -7 -12 -3 -7 5 -8 3 -3 -6 11 -17 38 18 32 41 -3 13 1 16 18 14 17 -1 22 2 17 13 -3 10 -1 13 6 8 12 -7 136 83 140 103 1 7 -3 11 -10 9 -7 -3 -13 -10 -13 -17 0 -13 -32 -41 -48 -41 -4 0 -5 5 -2 10 10 16 -11 12 -25 -5 -11 -13 -10 -14 6 -9 15 5 14 2 -6 -18 -28 -28 -18 -27 -232 -27 -118 0 -173 -4 -189 -13 -17 -10 -23 -10 -26 0 -3 8 -26 12 -64 12 -58 0 -59 0 -59 -29 0 -24 -4 -28 -27 -29 -47 0 -53 -2 -53 -14 0 -7 -12 -25 -27 -40 -27 -29 -17 -40 11 -12 9 8 16 12 16 7 0 -13 -69 -65 -79 -58 -5 3 -17 -5 -25 -17 -9 -12 -16 -18 -16 -13 0 6 -5 3 -10 -5 -10 -16 -32 6 -207 203 -48 53 -89 97 -92 97 -3 0 -5 -144 -5 -321 l2 -320 -56 -62 c-31 -34 -67 -74 -81 -90 -24 -27 -24 -27 -5 -43 19 -15 19 -15 0 -6 -14 7 -30 4 -59 -11 l-39 -20 23 -13 c13 -7 33 -11 44 -9 12 3 14 2 5 -2 -10 -4 -5 -10 20 -19 19 -7 28 -13 19 -13 -9 -1 -43 13 -77 29 -42 22 -64 39 -71 58 -6 19 -10 -65 -10 -281 l-1 -307 1130 0 1130 0 0 1115 0 1115 -1130 0 -1130 0 2 -622z m1135 -375 c-4 -3 -10 -3 -14 0 -3 4 0 7 7 7 7 0 10 -3 7 -7z m10 -40 c-4 -3 -10 -3 -14 0 -3 4 0 7 7 7 7 0 10 -3 7 -7z m-507 -73 c0 -5 -2 -10 -4 -10 -3 0 -8 5 -11 10 -3 6 -1 10 4 10 6 0 11 -4 11 -10z m665 -165 c87 -71 190 -156 229 -188 39 -32 90 -74 114 -93 l42 -35 0 -277 0 -277 -27 -1 c-45 -1 -72 -9 -86 -24 -9 -11 -7 -11 7 0 18 14 19 13 13 -4 -7 -17 -4 -18 29 -13 45 8 33 -10 -13 -19 -37 -7 -46 1 -198 171 -58 66 -119 134 -134 150 -140 149 -471 519 -471 525 0 5 15 19 33 32 38 27 55 41 110 91 23 20 52 40 64 43 23 6 37 29 28 45 -4 5 1 6 9 3 9 -3 20 3 28 15 12 19 13 20 39 3 15 -9 98 -75 184 -147z m-705 147 c0 -4 -14 -16 -31 -26 -17 -10 -28 -20 -25 -23 3 -3 -8 -18 -24 -33 -17 -16 -30 -33 -30 -38 0 -6 -9 -14 -21 -17 -14 -5 -19 -13 -16 -25 3 -12 0 -17 -7 -14 -7 3 -18 -7 -24 -21 -7 -14 -16 -24 -21 -20 -15 9 -23 -13 -12 -34 12 -21 -1 -24 -28 -7 -11 7 -13 5 -8 -7 3 -9 1 -19 -5 -23 -7 -4 -8 -3 -4 4 4 7 3 12 -2 12 -5 0 -13 -10 -19 -22 -5 -12 -12 -17 -16 -12 -3 5 13 30 36 54 23 25 59 65 81 90 115 133 176 189 176 162z m37 -29 c-4 -3 -7 0 -7 7 0 7 3 10 7 7 3 -4 3 -10 0 -14z m-37 -13 c0 -5 -5 -10 -11 -10 -5 0 -7 5 -4 10 3 6 8 10 11 10 2 0 4 -4 4 -10z m30 -10 c0 -5 -5 -10 -11 -10 -5 0 -7 5 -4 10 3 6 8 10 11 10 2 0 4 -4 4 -10z m-73 -57 c-4 -3 -7 0 -7 7 0 7 3 10 7 7 3 -4 3 -10 0 -14z m-2 -23 c3 -5 4 -10 1 -10 -3 0 -8 5 -11 10 -3 6 -4 10 -1 10 3 0 8 -4 11 -10z m-90 -80 c3 -5 4 -10 1 -10 -3 0 -8 5 -11 10 -3 6 -4 10 -1 10 3 0 8 -4 11 -10z m335 -25 c0 -1 -61 -51 -136 -111 -75 -60 -149 -121 -166 -136 -16 -16 -33 -28 -38 -28 -5 0 -15 -8 -22 -18 -7 -9 -33 -33 -58 -52 -25 -19 -46 -38 -48 -42 -2 -5 -9 -8 -15 -8 -7 1 -2 9 11 20 13 10 24 23 25 27 1 4 5 7 10 5 4 -1 7 3 7 10 0 6 2 9 5 6 7 -7 111 94 107 105 -1 5 2 6 8 2 10 -6 50 23 128 92 21 18 43 33 50 33 7 0 10 5 7 10 -4 6 7 15 24 21 17 6 29 14 27 17 -2 4 0 16 4 27 5 14 17 20 39 20 17 1 31 0 31 0z m-410 -49 c0 -3 -5 -8 -12 -12 -7 -4 -8 -3 -4 4 7 12 16 16 16 8z m217 -63 c-4 -3 -7 0 -7 7 0 7 3 10 7 7 3 -4 3 -10 0 -14z m-308 -289 c10 -9 -65 -3 -78 5 -10 6 1 8 30 4 24 -3 46 -7 48 -9z m1336 -404 c-3 -5 -10 -10 -16 -10 -5 0 -9 5 -9 10 0 6 7 10 16 10 8 0 12 -4 9 -10z"/>
 <path d="M1014 688 c-4 -7 -3 -8 4 -4 7 4 12 9 12 12 0 8 -9 4 -16 -8z"/>
 <path d="M1086 618 c3 -5 10 -6 15 -3 13 9 11 12 -6 12 -8 0 -12 -4 -9 -9z"/>
 <path d="M1070 606 c0 -2 8 -10 18 -17 15 -13 16 -12 3 4 -13 16 -21 21 -21 13z"/>
 <path d="M1175 550 c-3 -6 1 -7 9 -4 18 7 21 14 7 14 -6 0 -13 -4 -16 -10z"/>
 <path d="M1185 470 c3 -5 8 -10 11 -10 3 0 2 5 -1 10 -3 6 -8 10 -11 10 -3 0 -2 -4 1 -10z"/>
 <path d="M1220 436 c0 -2 7 -9 15 -16 13 -11 14 -10 9 4 -5 14 -24 23 -24 12z"/>
 <path d="M1260 396 c0 -2 8 -10 18 -17 15 -13 16 -12 3 4 -13 16 -21 21 -21 13z"/>
 <path d="M1320 380 c0 -5 5 -10 11 -10 5 0 7 5 4 10 -3 6 -8 10 -11 10 -2 0 -4 -4 -4 -10z"/>
 <path d="M1361 313 c7 -12 15 -20 18 -17 3 2 -3 12 -13 22 -17 16 -18 16 -5 -5z"/>
 <path d="M1393 313 c4 -3 10 -3 14 0 3 4 0 7 -7 7 -7 0 -10 -3 -7 -7z"/>
 <path d="M1400 290 c0 -7 3 -10 7 -7 3 4 3 10 0 14 -4 3 -7 0 -7 -7z"/>
 <path d="M1430 280 c0 -7 3 -10 7 -7 3 4 3 10 0 14 -4 3 -7 0 -7 -7z"/>
 <path d="M1406 251 c-3 -5 2 -15 12 -22 15 -12 16 -12 5 2 -7 9 -10 19 -6 22 3 4 4 7 0 7 -3 0 -8 -4 -11 -9z"/>
 <path d="M1495 150 c3 -5 11 -10 16 -10 6 0 7 5 4 10 -3 6 -11 10 -16 10 -6 0 -7 -4 -4 -10z"/>
 <path d="M370 850 c0 -7 3 -10 7 -7 3 4 3 10 0 14 -4 3 -7 0 -7 -7z"/>
 <path d="M1284 1848 c-4 -7 -3 -8 4 -4 12 7 16 16 8 16 -3 0 -8 -5 -12 -12z"/>
 <path d="M1253 1833 c4 -3 10 -3 14 0 3 4 0 7 -7 7 -7 0 -10 -3 -7 -7z"/>
 <path d="M1189 1763 c-13 -16 -12 -17 4 -4 16 13 21 21 13 21 -2 0 -10 -8 -17 -17z"/>
 <path d="M1170 1730 c0 -7 3 -10 7 -7 3 4 3 10 0 14 -4 3 -7 0 -7 -7z"/>
 <path d="M1150 1706 c0 -3 9 -10 19 -16 15 -7 22 -7 27 2 4 7 4 10 -1 6 -4 -4 -16 -3 -26 3 -11 5 -19 7 -19 5z"/>
 <path d="M1095 1630 c3 -5 8 -10 11 -10 3 0 2 5 -1 10 -3 6 -8 10 -11 10 -3 0 -2 -4 1 -10z"/>
 <path d="M1635 1590 c-3 -6 1 -7 9 -4 18 7 21 14 7 14 -6 0 -13 -4 -16 -10z"/>
 <path d="M1004 1548 c-19 -23 -19 -23 2 -5 11 9 24 14 29 10 4 -5 5 -2 1 5 -9 16 -10 16 -32 -10z"/>
 <path d="M1025 1530 c3 -5 8 -10 11 -10 3 0 2 5 -1 10 -3 6 -8 10 -11 10 -3 0 -2 -4 1 -10z"/>
 <path d="M1453 1513 c-7 -3 -13 -9 -13 -14 0 -6 5 -7 10 -4 6 3 10 2 10 -4 0 -5 -6 -12 -12 -14 -8 -3 -7 -6 4 -6 9 -1 20 3 23 9 9 14 -8 38 -22 33z"/>
 <path d="M1500 1510 c0 -7 3 -10 7 -7 3 4 3 10 0 14 -4 3 -7 0 -7 -7z"/>
 <path d="M1534 1498 l-19 -23 23 19 c21 18 27 26 19 26 -2 0 -12 -10 -23 -22z"/>
 <path d="M1500 1480 c0 -7 3 -10 7 -7 3 4 3 10 0 14 -4 3 -7 0 -7 -7z"/>
 <path d="M942 1460 c-7 -11 -8 -20 -3 -20 9 0 24 30 18 36 -1 2 -8 -6 -15 -16z"/>
 <path d="M1374 1424 c-18 -14 -18 -14 6 -3 31 14 36 19 24 19 -6 0 -19 -7 -30 -16z"/>
 <path d="M850 1375 c-9 -10 -9 -15 -1 -15 6 0 11 5 11 11 0 5 5 7 12 3 7 -4 8 -3 4 4 -9 15 -11 15 -26 -3z"/>
 <path d="M1290 1349 c0 -5 5 -7 10 -4 6 3 10 8 10 11 0 2 -4 4 -10 4 -5 0 -10 -5 -10 -11z"/>
 <path d="M768 1320 c-20 -19 -23 -30 -8 -30 9 0 35 39 28 45 -2 1 -11 -5 -20 -15z"/>
 <path d="M1234 1238 c-4 -7 -3 -8 4 -4 12 7 16 16 8 16 -3 0 -8 -5 -12 -12z"/>
 <path d="M4 760 c0 -69 1 -97 3 -62 2 34 2 90 0 125 -2 34 -3 6 -3 -63z"/>
 </g>
<g id="layer115" fill="#9b61e3" stroke="none">
 <path d="M2 1608 c2 -529 3 -572 8 -286 4 282 7 340 20 352 24 25 210 96 249 96 26 0 44 -8 71 -33 19 -19 96 -83 170 -142 74 -60 169 -137 210 -171 l76 -62 69 77 c291 322 469 518 534 591 149 166 165 180 204 180 27 0 41 -7 56 -26 20 -26 21 -39 21 -309 l0 -283 -82 -69 c-46 -37 -105 -86 -133 -107 -27 -22 -87 -70 -132 -108 -45 -38 -87 -67 -93 -63 -5 3 -7 0 -4 -9 3 -8 -2 -17 -13 -20 -10 -4 -42 -28 -71 -54 l-52 -47 257 -210 c141 -116 272 -223 290 -239 l34 -29 -3 -287 c-3 -318 -3 -316 -72 -327 -41 -7 -45 -4 -248 223 -84 94 -245 272 -358 396 l-205 225 -34 -26 c-19 -14 -37 -25 -40 -23 -3 1 -6 -3 -6 -8 0 -19 -28 -30 -45 -17 -13 10 -13 10 -3 -4 11 -13 -2 -28 -92 -100 -58 -46 -105 -87 -105 -91 0 -5 -6 -8 -14 -8 -8 0 -21 -8 -28 -18 -13 -17 -92 -82 -100 -82 -3 0 -5 7 -5 15 0 8 5 15 10 15 5 0 4 7 -3 15 -9 10 -9 15 -1 15 6 0 11 -4 11 -8 0 -4 9 -8 21 -8 18 0 18 2 5 12 -14 10 -14 13 2 28 23 20 36 21 29 2 -4 -10 -1 -13 9 -9 13 5 13 8 -2 24 -23 25 -40 24 -69 -5 -19 -19 -23 -32 -20 -69 2 -39 0 -46 -19 -51 -39 -11 -61 -6 -145 29 -112 47 -139 64 -150 95 -6 16 -10 -79 -10 -283 l-1 -307 1130 0 1130 0 0 1115 0 1115 -283 0 c-213 0 -286 -3 -296 -12 -11 -10 -12 -10 -7 -1 5 10 -172 13 -834 13 l-840 0 2 -622z"/>
 <path d="M1095 1630 c3 -5 8 -10 11 -10 3 0 2 5 -1 10 -3 6 -8 10 -11 10 -3 0 -2 -4 1 -10z"/>
 <path d="M1025 1530 c3 -5 8 -10 11 -10 3 0 2 5 -1 10 -3 6 -8 10 -11 10 -3 0 -2 -4 1 -10z"/>
 <path d="M940 1455 c-7 -9 -8 -15 -2 -15 5 0 12 7 16 15 3 8 4 15 2 15 -2 0 -9 -7 -16 -15z"/>
 <path d="M285 1115 c0 -173 3 -315 6 -315 3 0 16 11 29 25 12 13 27 22 33 18 6 -3 7 -1 3 6 -12 19 14 41 40 37 14 -3 22 -1 19 5 -4 5 -11 7 -16 4 -24 -15 -3 14 59 83 37 41 79 89 94 107 l27 32 -55 59 c-30 32 -93 103 -141 157 -48 53 -89 97 -92 97 -3 0 -6 -142 -6 -315z"/>
 <path d="M1364 1388 c-4 -7 -3 -8 4 -4 12 7 16 16 8 16 -3 0 -8 -5 -12 -12z"/>
 <path d="M1383 1373 c4 -3 10 -3 14 0 3 4 0 7 -7 7 -7 0 -10 -3 -7 -7z"/>
 <path d="M1310 1341 c-8 -6 -18 -7 -22 -5 -4 3 -8 1 -8 -5 0 -20 18 -20 35 -1 20 22 18 25 -5 11z"/>
 <path d="M1170 1225 c0 -17 2 -18 24 -9 18 7 12 24 -10 24 -8 0 -14 -7 -14 -15z"/>
 <path d="M1125 1190 c3 -5 8 -10 11 -10 3 0 2 5 -1 10 -3 6 -8 10 -11 10 -3 0 -2 -4 1 -10z"/>
 <path d="M562 1037 c-9 -11 -10 -17 -2 -22 15 -9 23 -1 18 21 -3 15 -4 16 -16 1z"/>
 <path d="M524 988 c-4 -7 -3 -8 4 -4 12 7 16 16 8 16 -3 0 -8 -5 -12 -12z"/>
 <path d="M454 948 c-4 -7 -3 -8 4 -4 12 7 16 16 8 16 -3 0 -8 -5 -12 -12z"/>
 <path d="M463 923 c4 -3 10 -3 14 0 3 4 0 7 -7 7 -7 0 -10 -3 -7 -7z"/>
 <path d="M435 890 c3 -5 8 -10 11 -10 3 0 2 5 -1 10 -3 6 -8 10 -11 10 -3 0 -2 -4 1 -10z"/>
 <path d="M4 760 c0 -69 1 -97 3 -62 2 34 2 90 0 125 -2 34 -3 6 -3 -63z"/>
 <path d="M415 860 c-3 -5 -2 -10 4 -10 5 0 13 5 16 10 3 6 2 10 -4 10 -5 0 -13 -4 -16 -10z"/>
 <path d="M382 834 c-7 -15 -17 -22 -24 -18 -7 4 -8 3 -4 -5 6 -8 12 -9 20 -2 7 6 15 9 17 7 2 -2 5 7 5 20 2 30 0 30 -14 -2z"/>
 <path d="M628 793 c-10 -2 -15 -10 -11 -19 3 -8 -1 -22 -8 -31 -8 -10 -9 -14 -2 -10 6 4 18 21 27 37 8 17 14 29 13 29 -1 -1 -10 -3 -19 -6z"/>
 <path d="M580 769 c0 -5 5 -7 10 -4 6 3 10 8 10 11 0 2 -4 4 -10 4 -5 0 -10 -5 -10 -11z"/>
 <path d="M260 740 c0 -6 7 -13 15 -17 24 -9 27 1 5 15 -13 8 -20 8 -20 2z"/>
 <path d="M528 731 c-14 -17 -14 -20 -2 -25 10 -4 12 -2 8 6 -5 7 -2 9 9 5 9 -3 18 -1 21 6 3 9 5 9 5 0 1 -7 5 -13 10 -13 5 0 7 9 4 20 -7 25 -34 26 -55 1z"/>
 <path d="M484 669 c-3 -6 -2 -15 3 -20 5 -5 9 -1 9 11 0 23 -2 24 -12 9z"/>
 <path d="M180 662 c0 -12 19 -26 26 -19 2 2 -2 10 -11 17 -9 8 -15 8 -15 2z"/>
 <path d="M226 657 c3 -10 9 -15 12 -12 3 3 0 11 -7 18 -10 9 -11 8 -5 -6z"/>
 <path d="M510 660 c0 -7 3 -10 7 -7 3 4 3 10 0 14 -4 3 -7 0 -7 -7z"/>
 <path d="M150 636 c-8 -10 -8 -21 -2 -32 8 -14 10 -11 14 15 5 36 5 36 -12 17z"/>
 <path d="M397 633 c-3 -5 6 -16 18 -26 13 -9 26 -13 30 -8 3 5 -4 13 -16 16 -17 6 -19 9 -8 16 11 7 11 9 -3 9 -9 0 -19 -3 -21 -7z"/>
 <path d="M455 630 c3 -5 11 -10 16 -10 6 0 7 5 4 10 -3 6 -11 10 -16 10 -6 0 -7 -4 -4 -10z"/>
 <path d="M125 570 c-3 -5 -3 -10 1 -10 4 0 -1 -6 -12 -14 -18 -14 -18 -15 6 -24 15 -6 29 -6 35 -1 5 5 26 9 47 9 39 0 51 13 22 24 -25 9 -41 7 -24 -4 11 -7 4 -10 -25 -9 -31 0 -36 2 -20 9 19 8 19 9 -3 9 -13 1 -20 5 -17 11 3 6 4 10 1 10 -3 0 -8 -4 -11 -10z m2 -37 c-4 -3 -10 -3 -14 0 -3 4 0 7 7 7 7 0 10 -3 7 -7z"/>
 <path d="M54 558 c-5 -8 -2 -9 9 -5 10 3 17 2 17 -4 0 -6 5 -7 10 -4 6 4 8 11 5 16 -8 13 -32 11 -41 -3z"/>
 <path d="M354 518 c-4 -7 -3 -8 4 -4 7 4 12 9 12 12 0 8 -9 4 -16 -8z"/>
 <path d="M175 510 c3 -5 12 -10 20 -10 7 0 15 -5 17 -12 3 -7 10 -8 17 -3 10 5 4 12 -19 21 -39 17 -43 17 -35 4z"/>
 <path d="M283 473 c4 -3 10 -3 14 0 3 4 0 7 -7 7 -7 0 -10 -3 -7 -7z"/>
 </g>
<g id="layer116" fill="#a476d7" stroke="none">
 <path d="M2 1608 c2 -529 3 -572 8 -286 4 282 7 340 20 352 24 25 210 96 249 96 26 0 44 -8 71 -33 19 -19 96 -83 170 -142 74 -60 169 -137 210 -171 l76 -62 69 77 c291 322 469 518 534 591 143 160 166 180 198 180 17 0 42 -6 56 -13 l26 -14 1 -295 1 -296 -83 -68 c-46 -38 -105 -87 -133 -108 -27 -22 -87 -70 -132 -108 -45 -38 -87 -67 -93 -63 -5 3 -7 0 -4 -9 3 -8 -2 -17 -13 -20 -10 -4 -42 -28 -71 -54 l-52 -47 257 -210 c141 -116 272 -223 290 -239 l34 -29 -3 -287 c-3 -318 -3 -316 -72 -327 -41 -7 -45 -4 -248 223 -84 94 -245 272 -358 396 l-205 225 -34 -26 c-19 -14 -37 -25 -40 -23 -3 1 -6 -3 -6 -8 0 -19 -28 -30 -45 -17 -13 10 -13 10 -3 -4 11 -13 -2 -28 -92 -100 -58 -46 -105 -87 -105 -91 0 -5 -6 -8 -14 -8 -8 0 -21 -8 -28 -18 -13 -17 -92 -82 -100 -82 -3 0 -5 7 -5 15 0 8 5 15 10 15 5 0 4 7 -3 15 -9 10 -9 15 -1 15 6 0 11 -4 11 -8 0 -4 9 -8 21 -8 19 0 18 2 -5 19 -15 10 -23 24 -20 30 3 7 -1 4 -9 -6 -10 -12 -14 -34 -12 -62 2 -37 -1 -44 -19 -49 -39 -11 -61 -6 -145 29 -112 47 -139 64 -150 95 -6 16 -10 -79 -10 -283 l-1 -307 1130 0 1130 0 0 1115 0 1115 -283 0 c-213 0 -286 -3 -296 -12 -11 -10 -12 -10 -7 -1 5 10 -172 13 -834 13 l-840 0 2 -622z"/>
 <path d="M285 1115 c0 -173 3 -315 6 -315 3 0 16 11 29 25 12 13 27 22 33 18 6 -3 7 -1 3 6 -12 19 14 41 40 37 14 -3 22 -1 19 5 -4 5 -11 7 -16 4 -24 -15 -3 14 59 83 37 41 79 89 94 107 l27 32 -55 59 c-30 32 -93 103 -141 157 -48 53 -89 97 -92 97 -3 0 -6 -142 -6 -315z"/>
 <path d="M1383 1373 c4 -3 10 -3 14 0 3 4 0 7 -7 7 -7 0 -10 -3 -7 -7z"/>
 <path d="M524 988 c-4 -7 -3 -8 4 -4 12 7 16 16 8 16 -3 0 -8 -5 -12 -12z"/>
 <path d="M454 948 c-4 -7 -3 -8 4 -4 12 7 16 16 8 16 -3 0 -8 -5 -12 -12z"/>
 <path d="M463 923 c4 -3 10 -3 14 0 3 4 0 7 -7 7 -7 0 -10 -3 -7 -7z"/>
 <path d="M435 890 c3 -5 8 -10 11 -10 3 0 2 5 -1 10 -3 6 -8 10 -11 10 -3 0 -2 -4 1 -10z"/>
 <path d="M4 760 c0 -69 1 -97 3 -62 2 34 2 90 0 125 -2 34 -3 6 -3 -63z"/>
 <path d="M382 834 c-7 -15 -17 -22 -24 -18 -7 4 -8 3 -4 -5 6 -8 12 -9 20 -2 7 6 15 9 17 7 2 -2 5 7 5 20 2 30 0 30 -14 -2z"/>
 <path d="M616 775 c4 -8 0 -23 -7 -33 -13 -15 -12 -16 2 -4 23 17 31 52 13 52 -8 0 -11 -6 -8 -15z"/>
 <path d="M580 769 c0 -5 5 -7 10 -4 6 3 10 8 10 11 0 2 -4 4 -10 4 -5 0 -10 -5 -10 -11z"/>
 <path d="M260 740 c0 -6 7 -13 15 -17 24 -9 27 1 5 15 -13 8 -20 8 -20 2z"/>
 <path d="M570 725 c0 -8 4 -15 10 -15 5 0 7 7 4 15 -4 8 -8 15 -10 15 -2 0 -4 -7 -4 -15z"/>
 <path d="M510 716 c0 -2 7 -7 16 -10 8 -3 12 -2 9 4 -6 10 -25 14 -25 6z"/>
 <path d="M484 668 c-4 -7 -3 -8 4 -4 12 7 16 16 8 16 -3 0 -8 -5 -12 -12z"/>
 <path d="M180 662 c0 -12 19 -26 26 -19 2 2 -2 10 -11 17 -9 8 -15 8 -15 2z"/>
 <path d="M226 657 c3 -10 9 -15 12 -12 3 3 0 11 -7 18 -10 9 -11 8 -5 -6z"/>
 <path d="M510 660 c0 -7 3 -10 7 -7 3 4 3 10 0 14 -4 3 -7 0 -7 -7z"/>
 <path d="M154 638 c-4 -7 -3 -8 4 -4 12 7 16 16 8 16 -3 0 -8 -5 -12 -12z"/>
 <path d="M395 630 c-8 -13 5 -13 25 0 13 8 13 10 -2 10 -9 0 -20 -4 -23 -10z"/>
 <path d="M455 630 c3 -5 11 -10 16 -10 6 0 7 5 4 10 -3 6 -11 10 -16 10 -6 0 -7 -4 -4 -10z"/>
 <path d="M146 605 c4 -8 8 -15 10 -15 2 0 4 7 4 15 0 8 -4 15 -10 15 -5 0 -7 -7 -4 -15z"/>
 <path d="M420 605 c7 -8 17 -12 22 -9 6 4 5 10 -3 15 -22 14 -33 10 -19 -6z"/>
 <path d="M400 595 c6 -8 9 -19 5 -24 -4 -7 0 -8 10 -5 14 6 14 8 -1 25 -20 22 -32 26 -14 4z"/>
 <path d="M125 570 c-3 -5 -3 -10 1 -10 4 0 -1 -6 -12 -14 -18 -14 -18 -15 6 -24 15 -6 29 -6 35 -1 5 5 26 9 47 9 21 0 38 4 38 9 0 12 -39 25 -47 17 -4 -3 0 -7 8 -7 8 -1 1 -5 -16 -8 -35 -9 -57 -1 -29 10 17 7 17 8 -4 8 -13 1 -20 5 -17 11 3 6 4 10 1 10 -3 0 -8 -4 -11 -10z m2 -37 c-4 -3 -10 -3 -14 0 -3 4 0 7 7 7 7 0 10 -3 7 -7z"/>
 <path d="M54 558 c-5 -8 -2 -9 9 -5 10 3 17 2 17 -4 0 -6 5 -7 10 -4 6 4 8 11 5 16 -8 13 -32 11 -41 -3z"/>
 <path d="M354 518 c-4 -7 -3 -8 4 -4 7 4 12 9 12 12 0 8 -9 4 -16 -8z"/>
 <path d="M175 510 c3 -5 12 -10 20 -10 7 0 15 -5 17 -12 3 -7 10 -8 17 -3 10 5 4 12 -19 21 -39 17 -43 17 -35 4z"/>
 <path d="M283 473 c4 -3 10 -3 14 0 3 4 0 7 -7 7 -7 0 -10 -3 -7 -7z"/>
 </g>
<g id="layer117" fill="#af90d5" stroke="none">
 <path d="M2 1608 c2 -529 3 -572 8 -286 4 282 7 340 20 352 25 25 207 96 245 96 30 0 51 -13 133 -82 88 -74 386 -316 395 -321 5 -3 221 234 606 663 95 106 160 172 186 187 16 9 -158 12 -787 12 l-808 1 2 -622z"/>
 <path d="M1654 2206 l35 -21 1 -289 c0 -160 2 -292 5 -294 4 -4 -103 -94 -245 -206 -41 -33 -107 -87 -146 -120 -39 -34 -99 -83 -133 -110 -34 -27 -59 -52 -54 -56 4 -5 116 -96 248 -204 132 -108 259 -213 283 -232 l42 -35 0 -285 0 -285 -25 -24 c-35 -36 -77 -33 -119 7 -18 18 -96 103 -172 188 -197 219 -562 620 -568 623 -4 2 -286 -224 -318 -256 -10 -9 -22 -17 -27 -17 -6 0 -16 -8 -23 -17 -7 -10 -37 -38 -66 -62 -73 -60 -105 -62 -211 -17 -112 49 -139 66 -150 96 -6 16 -10 -79 -10 -283 l-1 -307 1130 0 1130 0 0 1115 0 1115 -285 0 c-157 0 -284 -3 -282 -7 2 -9 -6 -13 -25 -13 -9 0 -8 3 2 10 10 6 5 9 -18 8 l-32 -1 34 -21z m60 -8 c-5 -8 -2 -9 9 -5 10 3 17 3 17 -2 0 -5 -9 -11 -20 -14 -11 -3 -18 -1 -14 4 3 5 0 9 -6 9 -6 0 -8 5 -5 10 3 6 11 10 16 10 6 0 7 -5 3 -12z m63 -25 c-4 -3 -10 -3 -14 0 -3 4 0 7 7 7 7 0 10 -3 7 -7z m112 -49 c14 -12 -19 -1 -35 12 -18 14 -18 14 6 3 14 -6 27 -13 29 -15z m61 -29 c14 -8 21 -14 15 -14 -5 0 -21 6 -35 14 -14 8 -20 14 -15 14 6 0 21 -6 35 -14z m126 -62 c-2 -2 -15 1 -30 7 -15 5 -32 8 -37 4 -5 -3 -9 1 -9 10 0 12 5 12 40 -1 22 -9 39 -18 36 -20z m63 -29 c2 -2 -41 2 -57 5 -2 1 0 6 3 11 5 9 36 0 54 -16z m65 -46 c-3 -5 0 -8 5 -8 6 0 11 -5 11 -11 0 -6 -5 -7 -12 -2 -7 4 -17 8 -23 8 -5 0 -10 5 -10 10 0 6 -4 15 -8 22 -5 8 -1 8 17 0 13 -7 22 -15 20 -19z m43 -165 c-2 -21 -4 -6 -4 32 0 39 2 55 4 38 2 -18 2 -50 0 -70z m0 -95 c-2 -13 -4 -5 -4 17 -1 22 1 32 4 23 2 -10 2 -28 0 -40z"/>
 <path d="M285 1115 c0 -173 3 -315 6 -315 5 0 206 219 263 287 l25 30 -55 59 c-30 32 -93 103 -141 157 -48 53 -89 97 -92 97 -3 0 -6 -142 -6 -315z"/>
 <path d="M4 760 c0 -69 1 -97 3 -62 2 34 2 90 0 125 -2 34 -3 6 -3 -63z"/>
 </g>
<g id="layer118" fill="#b59bdc" stroke="none">
 <path d="M2 1608 c2 -530 3 -573 8 -285 6 394 -9 351 140 411 132 53 144 51 248 -37 48 -41 137 -114 197 -162 61 -49 131 -106 156 -127 25 -21 49 -38 55 -37 5 0 38 33 74 73 36 39 107 119 159 176 52 58 135 149 185 203 49 55 101 113 115 131 55 69 227 248 251 261 21 12 -92 14 -782 15 l-808 0 2 -622z"/>
 <path d="M1655 2206 l34 -21 1 -289 c0 -160 2 -292 4 -294 5 -5 -43 -47 -168 -147 -97 -78 -160 -130 -306 -250 -40 -33 -81 -67 -92 -75 -20 -17 -32 -6 258 -240 24 -19 103 -84 176 -144 l133 -109 -5 -287 c-5 -307 -6 -311 -58 -331 -35 -13 -70 10 -148 98 -38 43 -95 107 -129 143 -33 36 -141 155 -240 265 -261 289 -314 345 -320 335 -3 -5 -72 -61 -153 -126 -81 -64 -151 -122 -157 -128 -5 -6 -45 -40 -87 -75 -101 -82 -123 -86 -243 -36 -104 43 -131 61 -144 95 -6 17 -10 -76 -10 -283 l-1 -307 1130 0 1130 0 0 1115 0 1115 -286 0 c-262 0 -322 -6 -249 -24 14 -4 40 -16 58 -27 26 -17 27 -19 7 -13 -14 5 -39 9 -57 9 -26 0 -29 2 -20 14 9 12 9 13 0 7 -7 -4 -22 -1 -34 7 -14 11 -17 16 -7 19 7 3 -2 5 -19 5 l-33 0 35 -21z m207 -66 c18 -11 29 -20 23 -20 -5 0 -23 9 -40 20 -39 26 -25 26 17 0z m143 -70 c44 -22 69 -37 55 -33 -14 4 -33 7 -42 7 -10 0 -18 5 -18 11 0 6 -21 21 -47 32 -27 12 -43 21 -38 22 6 0 46 -18 90 -39z m200 -100 c8 -7 15 -19 15 -27 0 -13 -2 -13 -17 -2 -9 8 -19 14 -22 14 -3 0 -5 3 -4 7 4 11 -45 41 -70 44 -30 3 -29 3 -22 13 6 10 91 -25 120 -49z m42 -1017 c-1 -175 -2 -32 -2 317 0 349 1 492 2 318 2 -175 2 -461 0 -635z m-540 600 c-4 -3 -7 0 -7 7 0 7 3 10 7 7 3 -4 3 -10 0 -14z m5 -267 c-2 -156 -6 -245 -12 -241 -11 7 -14 477 -4 488 4 4 10 5 13 3 3 -2 5 -115 3 -250z m-5 -613 c-4 -3 -7 0 -7 7 0 7 3 10 7 7 3 -4 3 -10 0 -14z m540 -325 c-3 -8 -6 -5 -6 6 -1 11 2 17 5 13 3 -3 4 -12 1 -19z m-27 -62 c0 -2 -8 -10 -17 -17 -16 -13 -17 -12 -4 4 13 16 21 21 21 13z m-130 -70 c0 -3 -5 -8 -12 -12 -7 -4 -8 -3 -4 4 7 12 16 16 16 8z m-80 -50 c0 -3 -5 -8 -12 -12 -7 -4 -8 -3 -4 4 7 12 16 16 16 8z"/>
 <path d="M285 1115 c0 -173 3 -315 6 -315 5 0 197 209 260 284 l27 32 -52 55 c-28 31 -91 101 -140 155 -49 55 -92 100 -95 102 -3 1 -6 -140 -6 -313z"/>
 <path d="M4 760 c0 -69 1 -97 3 -62 2 34 2 90 0 125 -2 34 -3 6 -3 -63z"/>
 </g>
<g id="layer119" fill="#b784f2" stroke="none">
 <path d="M2 1608 c2 -530 3 -573 8 -285 6 396 -11 352 153 416 69 27 111 38 127 34 14 -4 85 -56 159 -117 74 -61 162 -133 196 -161 34 -27 82 -67 107 -87 25 -21 48 -38 51 -38 5 0 109 113 392 425 61 67 166 184 235 260 69 76 139 146 155 156 29 19 14 19 -777 19 l-808 0 2 -622z"/>
 <path d="M1655 2206 l34 -21 1 -289 c0 -160 2 -292 4 -294 6 -5 -43 -47 -204 -177 -74 -61 -176 -144 -225 -185 -50 -41 -105 -86 -123 -100 l-33 -26 117 -94 c64 -52 133 -108 154 -125 59 -47 127 -103 221 -182 48 -40 88 -71 90 -68 2 2 3 -126 1 -283 -3 -308 -5 -320 -56 -343 -18 -8 -30 -7 -52 4 -16 8 -198 201 -404 429 l-375 414 -75 -62 c-41 -34 -105 -86 -142 -115 -37 -30 -114 -93 -172 -141 -126 -106 -134 -107 -281 -45 -86 36 -102 47 -117 77 -18 34 -18 27 -18 -273 l0 -307 840 0 c468 0 839 4 836 9 -3 5 8 14 24 21 16 7 27 17 24 22 -4 6 2 8 15 3 12 -3 21 -2 21 4 0 6 19 15 43 22 23 6 44 14 47 18 3 3 41 22 85 40 86 37 128 64 117 75 -3 4 2 4 12 0 15 -6 17 -4 11 7 -8 12 -6 12 8 1 14 -12 19 -12 32 2 9 9 20 16 25 16 5 0 25 14 45 31 23 20 35 26 35 17 0 -20 -26 -41 -85 -68 -27 -13 -132 -63 -232 -111 -100 -49 -187 -89 -192 -89 -5 0 -13 -4 -16 -10 -4 -7 92 -10 279 -10 l286 0 0 1115 0 1115 -287 0 -288 -1 63 -31 c66 -33 77 -46 23 -27 -17 6 -41 9 -52 6 -17 -5 -18 -3 -7 11 10 12 10 14 1 8 -7 -4 -22 -1 -34 7 -14 11 -17 16 -7 19 7 3 -2 5 -19 5 l-33 0 35 -21z m211 -66 c21 -10 32 -19 24 -20 -8 0 -28 9 -45 20 -38 25 -30 25 21 0z m154 -77 c36 -18 54 -30 40 -26 -14 3 -33 7 -42 7 -10 0 -18 5 -18 11 0 6 -21 21 -47 33 -27 12 -37 19 -23 15 14 -3 54 -21 90 -40z m170 -82 c14 -10 27 -26 29 -37 3 -16 2 -17 -14 -4 -10 8 -21 15 -24 15 -3 0 -5 3 -4 7 4 11 -45 41 -70 44 -30 3 -29 3 -22 14 7 11 66 -11 105 -39z m58 -867 l-3 -799 -5 807 c-3 444 -2 804 3 799 4 -4 6 -367 5 -807z m-538 20 c1 -526 2 -483 -10 -464 -11 17 -14 883 -3 893 3 4 8 6 10 4 1 -2 3 -197 3 -433z"/>
 <path d="M288 1110 c-2 -171 0 -309 4 -308 4 2 70 73 147 158 l139 155 -56 61 c-32 33 -93 102 -137 152 -44 50 -83 91 -87 91 -4 1 -9 -139 -10 -309z"/>
 <path d="M4 760 c0 -69 1 -97 3 -62 2 34 2 90 0 125 -2 34 -3 6 -3 -63z"/>
 </g>
<g id="layer120" fill="#c295f4" stroke="none">
 <path d="M2 1608 c2 -530 3 -573 8 -285 6 396 -11 352 153 416 69 27 111 38 127 34 14 -4 85 -56 159 -117 74 -61 162 -133 196 -161 34 -27 82 -67 107 -87 25 -21 48 -38 51 -38 5 0 109 113 392 425 61 67 166 184 235 260 69 76 139 146 155 156 29 19 14 19 -777 19 l-808 0 2 -622z"/>
 <path d="M1663 2223 c4 -3 10 -3 14 0 3 4 0 7 -7 7 -7 0 -10 -3 -7 -7z"/>
 <path d="M1870 2138 c102 -50 217 -105 255 -122 46 -22 79 -45 98 -69 l27 -36 -2 -798 c-2 -463 -5 -695 -8 -553 -3 135 -7 209 -8 165 l-2 -80 -227 0 -228 0 -3 23 c-2 12 -8 20 -13 17 -5 -4 -5 -14 1 -25 6 -11 6 -21 1 -24 -5 -4 -12 7 -16 23 -8 36 -35 50 -35 18 -1 -20 -2 -20 -11 -5 -6 11 -9 178 -7 468 2 247 0 450 -4 450 -4 0 -10 -4 -13 -10 -3 -5 -76 -67 -163 -137 -86 -70 -198 -161 -247 -203 -50 -41 -105 -86 -123 -100 l-33 -26 117 -94 c64 -52 133 -108 154 -125 59 -47 127 -103 221 -182 48 -40 89 -69 93 -66 3 4 6 -123 6 -281 0 -314 -1 -322 -59 -346 -23 -9 -35 -9 -58 3 -16 8 -197 201 -403 429 l-375 414 -75 -62 c-41 -34 -105 -86 -142 -115 -37 -30 -114 -93 -172 -141 -126 -106 -134 -107 -281 -45 -86 36 -102 47 -117 77 -18 34 -18 27 -18 -273 l0 -307 840 0 c468 0 839 4 836 9 -3 5 8 15 26 22 28 11 29 14 12 21 -13 6 -9 7 14 3 17 -2 32 0 32 5 0 5 20 15 45 21 25 6 45 15 45 19 0 4 18 13 40 20 21 7 37 17 34 21 -3 5 3 6 12 2 13 -5 15 -3 9 7 -5 8 -4 11 3 6 19 -12 119 43 104 58 -3 4 2 4 12 0 15 -6 17 -4 11 7 -6 11 -5 12 6 2 15 -15 33 -17 25 -4 -3 5 5 12 19 15 13 3 40 20 60 37 23 21 35 26 35 17 0 -20 -26 -41 -85 -68 -27 -13 -132 -63 -232 -111 -100 -49 -187 -89 -192 -89 -5 0 -13 -5 -16 -10 -4 -7 92 -10 279 -10 l286 0 0 1115 0 1115 -287 -1 -288 0 185 -91z m-132 -1663 c-1 -187 -6 -163 -10 47 -2 81 0 140 4 130 4 -9 6 -89 6 -177z"/>
 <path d="M288 1110 c-2 -171 0 -309 4 -308 4 2 70 73 147 158 l139 155 -56 61 c-32 33 -93 102 -137 152 -44 50 -83 91 -87 91 -4 1 -9 -139 -10 -309z"/>
 <path d="M1730 922 c0 -75 4 -122 10 -122 9 0 3 228 -6 239 -2 2 -4 -50 -4 -117z"/>
 <path d="M4 760 c0 -69 1 -97 3 -62 2 34 2 90 0 125 -2 34 -3 6 -3 -63z"/>
 <path d="M1712 775 c0 -16 2 -22 5 -12 2 9 2 23 0 30 -3 6 -5 -1 -5 -18z"/>
 <path d="M1762 775 c0 -16 2 -22 5 -12 2 9 2 23 0 30 -3 6 -5 -1 -5 -18z"/>
 <path d="M1730 760 c0 -7 3 -10 7 -7 3 4 3 10 0 14 -4 3 -7 0 -7 -7z"/>
 <path d="M1720 720 c-13 -8 -12 -10 3 -10 9 0 17 5 17 10 0 12 -1 12 -20 0z"/>
 </g>
<g id="layer121" fill="#d0b2f1" stroke="none">
 <path d="M2 1608 c2 -530 3 -573 8 -285 6 396 -11 352 153 416 69 27 111 38 127 34 14 -4 85 -56 159 -117 74 -61 162 -133 196 -161 34 -27 82 -67 107 -87 25 -21 48 -38 51 -38 5 0 135 141 391 424 305 338 363 400 391 417 29 19 14 19 -777 19 l-808 0 2 -622z"/>
 <path d="M1830 2158 c80 -39 195 -94 255 -123 71 -33 120 -63 138 -84 l27 -33 0 -796 0 -797 -25 -38 c-19 -26 -46 -46 -98 -71 -40 -18 -116 -55 -170 -80 -54 -26 -103 -44 -109 -40 -7 4 -8 3 -4 -4 6 -10 -110 -72 -134 -72 -5 0 -12 -5 -15 -10 -4 -7 92 -10 279 -10 l286 0 0 1115 0 1115 -287 -1 -288 0 145 -71z"/>
 <path d="M1676 1581 c-4 -6 -77 -68 -164 -138 -86 -70 -198 -161 -247 -203 -50 -41 -105 -86 -123 -100 l-33 -26 117 -94 c64 -52 133 -108 154 -125 59 -47 128 -104 223 -183 48 -40 87 -70 87 -65 3 73 -1 937 -4 940 -2 3 -7 0 -10 -6z"/>
 <path d="M288 1110 c-2 -171 0 -309 4 -308 4 2 70 73 147 158 l139 155 -56 61 c-32 33 -93 102 -137 152 -44 50 -83 91 -87 91 -4 1 -9 -139 -10 -309z"/>
 <path d="M4 760 c0 -69 1 -97 3 -62 2 34 2 90 0 125 -2 34 -3 6 -3 -63z"/>
 <path d="M658 747 c-75 -62 -183 -151 -241 -199 -127 -106 -135 -107 -282 -45 -86 36 -102 47 -117 77 -18 34 -18 27 -18 -272 l0 -308 823 0 c728 1 817 3 782 15 -22 8 -41 15 -41 15 -1 0 -82 89 -180 197 -446 491 -576 633 -582 632 -4 0 -68 -51 -144 -112z"/>
 </g>
<g id="layer122" fill="#ecd1ff" stroke="none">
 <path d="M0 1923 c1 -271 2 -304 15 -276 17 40 38 53 158 98 71 26 105 34 122 28 22 -8 228 -172 409 -325 50 -43 94 -78 97 -78 4 0 110 114 236 252 447 495 525 579 551 593 24 12 -71 14 -780 15 l-808 0 0 -307z"/>
 <path d="M1795 2176 c61 -29 175 -85 255 -123 100 -48 154 -80 173 -102 l27 -33 -2 -809 -3 -809 -30 -29 c-17 -16 -138 -81 -275 -146 -135 -65 -247 -119 -249 -121 -2 -2 125 -4 282 -4 l287 0 0 1115 0 1115 -287 0 -288 -1 110 -53z"/>
 <path d="M1599 1513 c-45 -38 -113 -93 -150 -123 -37 -30 -123 -100 -190 -155 -67 -55 -126 -103 -131 -106 -15 -10 1 -33 49 -69 42 -32 97 -76 395 -322 48 -39 94 -76 103 -80 13 -8 15 41 15 457 0 256 -2 465 -4 465 -2 0 -41 -30 -87 -67z"/>
 <path d="M290 1114 c0 -285 1 -305 17 -293 34 28 264 291 261 298 -6 14 -263 299 -270 300 -5 1 -8 -137 -8 -305z"/>
 <path d="M734 807 c-249 -210 -422 -346 -448 -353 -16 -4 -40 0 -64 11 -20 9 -46 20 -57 25 -124 53 -136 60 -150 92 -13 30 -14 1 -15 -274 l0 -308 813 0 c750 0 810 2 780 16 -18 9 -72 60 -120 113 -48 53 -135 148 -193 211 -59 63 -188 206 -289 318 -100 111 -185 202 -189 201 -4 0 -35 -24 -68 -52z"/>
 </g>
<g id="layer123" fill="#fffefe" stroke="none">
 <path d="M0 1938 l0 -293 23 26 c13 16 56 39 107 58 47 18 93 36 102 42 43 23 73 11 173 -73 127 -106 150 -125 159 -129 5 -2 25 -18 44 -36 19 -18 39 -30 44 -27 5 3 7 0 6 -7 -3 -10 39 -47 124 -110 l26 -19 78 87 c114 130 191 215 262 291 34 36 60 72 57 80 -2 7 -1 11 4 8 12 -8 136 122 135 140 -1 7 2 12 6 9 5 -3 50 41 101 98 51 56 106 112 123 125 l30 22 -802 0 -802 0 0 -292z"/>
 <path d="M1700 2226 c0 -10 114 -56 127 -52 8 3 11 1 8 -4 -3 -6 2 -13 12 -17 62 -22 361 -173 373 -188 8 -10 20 -30 27 -44 9 -21 12 5 12 142 l1 167 -280 0 c-154 0 -280 -2 -280 -4z"/>
 <path d="M1644 1548 c-43 -33 -165 -138 -193 -165 -13 -12 -30 -23 -37 -23 -8 0 -14 -4 -14 -8 0 -5 -63 -59 -140 -120 -80 -65 -137 -118 -134 -125 3 -6 21 -23 40 -37 19 -14 48 -35 63 -47 16 -12 32 -19 36 -15 5 4 5 2 2 -5 -4 -7 20 -31 60 -61 38 -28 88 -69 113 -92 27 -25 50 -38 59 -35 9 3 12 3 8 -1 -9 -10 13 -35 24 -28 5 3 8 1 7 -4 -3 -10 128 -122 143 -122 5 0 9 186 9 455 0 250 -4 455 -9 455 -4 0 -21 -10 -37 -22z"/>
 <path d="M290 1113 l1 -308 37 41 c166 181 217 240 216 251 -1 7 2 11 6 8 5 -3 11 -1 14 4 7 10 -123 157 -135 154 -5 -2 -8 1 -7 5 3 9 -113 150 -124 151 -5 1 -8 -137 -8 -306z"/>
 <path d="M690 768 c-52 -44 -106 -89 -120 -101 -71 -60 -228 -186 -253 -201 -33 -22 -73 -18 -144 17 -28 13 -64 27 -78 31 -37 9 -75 36 -75 52 0 7 -5 16 -10 19 -7 4 -10 -95 -10 -289 l0 -296 802 0 c748 0 801 1 778 16 -14 10 -29 22 -35 29 -23 28 -153 171 -185 205 -43 45 -198 214 -270 295 -30 33 -56 62 -60 65 -4 3 -30 32 -59 65 -136 154 -157 175 -171 174 -8 0 -58 -36 -110 -81z"/>
 <path d="M2252 324 c-5 -46 -45 -76 -206 -153 -88 -43 -179 -86 -201 -96 -22 -9 -65 -29 -95 -44 l-55 -26 279 -3 c153 -1 281 -1 283 1 2 2 2 80 0 173 -1 93 -4 159 -5 148z"/>
 </g>

</svg>